<svg width="18" height="23" viewBox="0 0 18 23" fill="none" xmlns="http://www.w3.org/2000/svg">
<path fill-rule="evenodd" clip-rule="evenodd" d="M6.05283 0.134448C5.78621 0.268709 5.57218 0.508797 5.40721 0.858693C5.33126 1.01988 5.32297 1.55092 5.31205 6.9844C5.30546 10.2565 5.28829 12.9843 5.27387 13.0462C5.24009 13.1915 4.98903 13.3237 4.8255 13.2822C4.74212 13.2611 4.44506 12.9368 3.93516 12.3106C3.10081 11.2858 2.92231 11.1053 2.55907 10.9193C1.80526 10.5334 0.892661 10.6803 0.216345 11.2966L-0.000976562 11.4946L2.38068 16.1215C3.69059 18.6663 4.86592 20.9072 4.99253 21.1013C5.59958 22.032 6.605 22.7121 7.68112 22.9201C8.25574 23.0312 14.0281 23.0246 14.5704 22.9122C15.3515 22.7504 15.9901 22.4137 16.5704 21.8577C17.1858 21.2682 17.5912 20.5999 17.8614 19.7293L17.999 19.2862V14.3705V9.45485L17.8637 9.22228C17.4089 8.44066 16.4728 8.28875 15.8364 8.8933C15.5018 9.21118 15.4584 9.36153 15.4299 10.3038L15.4041 11.1528L15.2641 11.2743C15.0955 11.4208 14.932 11.4292 14.7734 11.2997C14.6564 11.204 14.6555 11.1949 14.6307 9.90059C14.6078 8.70378 14.597 8.57865 14.4983 8.36301C14.1707 7.64699 13.3592 7.36742 12.7344 7.75538C12.4873 7.90885 12.2164 8.27549 12.1372 8.56362C12.1089 8.66653 12.0861 9.30098 12.086 9.99003C12.0857 11.169 12.0805 11.2377 11.9822 11.3639C11.8362 11.5516 11.5368 11.5516 11.3907 11.3639C11.2912 11.2361 11.2873 11.1728 11.2873 9.6839C11.2873 7.94959 11.2707 7.84034 10.9505 7.46241C10.4878 6.91624 9.69111 6.85604 9.1614 7.32714C8.71443 7.72463 8.72072 7.69161 8.69238 9.7745L8.66743 11.6067L8.54961 11.703C8.48484 11.7559 8.39042 11.7993 8.33987 11.7993C8.20459 11.7993 8.00508 11.6967 7.95907 11.6034C7.93697 11.5586 7.90768 9.13974 7.89395 6.22814L7.869 0.934319L7.76097 0.73265C7.62004 0.469673 7.31774 0.177807 7.08465 0.0796946C6.79013 -0.0442817 6.36277 -0.0215939 6.05283 0.134448Z" fill="white"/>
</svg>
