<svg width="51" height="50" viewBox="0 0 51 50" fill="none" xmlns="http://www.w3.org/2000/svg">
<path fill-rule="evenodd" clip-rule="evenodd" d="M23.1386 0.0470504C19.4356 0.401914 16.6815 1.1856 13.5635 2.77165C9.86985 4.65032 6.55541 7.62113 4.13868 11.2191C3.72353 11.8371 3.01674 13.0902 2.56788 14.0037C0.93406 17.3288 0.148416 20.458 0.0164163 24.165C-0.1319 28.332 0.724972 32.2979 2.57892 36.0257C3.88494 38.6517 5.22682 40.5095 7.35385 42.6366C9.50434 44.787 11.3705 46.1298 14.0032 47.4213C15.8401 48.3224 17.0261 48.761 18.8884 49.2281C23.775 50.4539 28.676 50.2188 33.4502 48.5299C34.8974 48.018 37.4237 46.7518 38.7225 45.8876C41.6424 43.9447 44.3229 41.1968 46.2357 38.1856C46.9394 37.0778 48.0704 34.7404 48.5317 33.4403C50.827 26.9725 50.4275 20.0307 47.411 13.9653C46.1936 11.5175 44.8383 9.59906 42.9354 7.63002C40.8253 5.44632 38.7555 3.93971 35.9867 2.57165C33.0926 1.14174 30.3961 0.378465 27.1933 0.0825173C26.1979 -0.00942296 23.9349 -0.029257 23.1386 0.0470504ZM30.5153 12.911C32.9557 13.7701 34.6913 15.5091 35.5061 17.9119C35.8865 19.0336 35.9544 20.8794 35.659 22.0685C35.0889 24.364 33.4223 26.3839 31.3068 27.343C29.9824 27.9435 29.8803 27.9554 25.6545 27.9985L21.7707 28.0383V29.6876V31.3369L25.1833 31.366C28.4692 31.3941 28.6063 31.4028 28.8717 31.5996C29.7904 32.2807 29.8102 33.4563 28.9131 34.0557C28.5838 34.2756 28.5532 34.2775 25.1834 34.2775H21.7856L21.7537 36.1583C21.7234 37.9449 21.7104 38.0551 21.4943 38.3581C21.196 38.7764 20.7774 38.9836 20.2308 38.9836C19.7301 38.9836 19.4019 38.7876 19.0594 38.2843C18.8506 37.9775 18.8395 37.8687 18.8395 36.1194V34.2775L17.7892 34.2771C16.9136 34.2768 16.6859 34.2444 16.4205 34.0825C15.5009 33.5219 15.4804 32.1763 16.3829 31.6175C16.6811 31.4329 16.9093 31.3912 17.7892 31.3609L18.8395 31.3247V29.6745V28.0243L17.8381 28.0241C17.0797 28.024 16.754 27.9826 16.4966 27.8532C15.4498 27.3273 15.4478 25.8296 16.4931 25.2741C16.7608 25.1319 17.048 25.0932 17.8365 25.0932H18.8395V19.3726C18.8395 13.2259 18.8272 13.3841 19.3432 12.9169C19.4692 12.8029 19.6383 12.6843 19.7189 12.6534C19.7995 12.6225 22.0858 12.6059 24.7995 12.6166L29.7336 12.6358L30.5153 12.911ZM21.7707 20.3057V25.0932H25.1856C27.3011 25.0932 28.7974 25.0522 29.1182 24.9852C31.3163 24.5268 32.9138 22.5595 32.9067 20.3198C32.9022 18.9382 32.5407 18.0121 31.6224 17.0305C30.9664 16.3292 30.4853 16.0161 29.6108 15.7215C29.0423 15.5299 28.7961 15.5181 25.3889 15.5181H21.7707V20.3057Z" fill="#343434"/>
</svg>
