<svg width="25" height="25" viewBox="0 0 25 25" fill="none" xmlns="http://www.w3.org/2000/svg">
<path fill-rule="evenodd" clip-rule="evenodd" d="M10.89 0.0813895C6.73978 0.625065 3.1106 3.23852 1.27213 7.00743C-0.424044 10.4845 -0.424044 14.5096 1.27213 17.9866C3.16461 21.8662 6.87814 24.4674 11.2074 24.9461C12.2043 25.0563 13.7974 24.9924 14.8065 24.8018C19.2376 23.9649 22.8996 20.7803 24.3463 16.5052C25.2179 13.9297 25.2179 11.0643 24.3463 8.48886C22.7916 3.89498 18.6918 0.589426 13.8812 0.0513288C13.168 -0.0284611 11.6088 -0.0127849 10.89 0.0813895ZM13.3198 2.51765C18.2622 2.95553 22.0735 6.80312 22.4756 11.7607C22.7642 15.3186 20.9956 18.9068 17.9867 20.868C14.5936 23.0797 10.2813 23.0537 6.9311 20.8015C3.55458 18.5316 1.87934 14.4308 2.70731 10.4618C3.51851 6.5732 6.59128 3.5019 10.4851 2.68798C11.4796 2.48008 12.3235 2.42935 13.3198 2.51765ZM12.2093 6.26666C11.7785 6.40663 11.5105 6.63602 11.362 6.9917C11.2255 7.31873 11.2255 13.9177 11.362 14.2448C11.7362 15.1411 12.9588 15.2537 13.5267 14.4442L13.7052 14.1896L13.723 10.7453C13.735 8.4039 13.7204 7.23136 13.6774 7.08347C13.5123 6.51584 12.7491 6.09123 12.2093 6.26666ZM12.0711 16.3406C11.6001 16.5087 11.2738 16.9901 11.2738 17.5169C11.2738 18.2334 11.7773 18.7205 12.5179 18.7205C13.1675 18.7205 13.6699 18.2677 13.7223 17.6349C13.8 16.6972 12.9465 16.0282 12.0711 16.3406Z" fill="#B67E68"/>
</svg>
