<svg width="384" height="25" viewBox="0 0 384 25" fill="none" xmlns="http://www.w3.org/2000/svg">
<path d="M167 11.7428H8.45865C8.11764 9.61905 6.37035 8.00024 4.26096 8.00024C1.909 8.00024 0 10.0126 0 12.5003C0 14.9842 1.909 17.0002 4.26096 17.0002C6.37035 17.0002 8.11764 15.3814 8.45865 13.2577H167V11.7428Z" fill="url(#paint0_linear_260_163)"/>
<path d="M217 12.0963H375.541C375.882 9.97257 377.63 8.35376 379.739 8.35376C382.091 8.35376 384 10.3661 384 12.8538C384 15.3377 382.091 17.3538 379.739 17.3538C377.63 17.3538 375.882 15.735 375.541 13.6112H217V12.0963Z" fill="url(#paint1_linear_260_163)"/>
<path d="M191.998 -9.53674e-05L189.378 2.65886C188.082 3.97356 188.082 6.1108 189.378 7.42549L191.998 10.0862L194.622 7.42549C195.248 6.78901 195.594 5.94211 195.594 5.04304C195.594 4.14223 195.248 3.29708 194.622 2.65886L191.998 -9.53674e-05Z" fill="white"/>
<path d="M179.363 6.85435V10.6164C179.363 12.473 180.853 13.9866 182.685 13.9866H186.392V10.2229C186.392 9.32313 186.047 8.47723 185.419 7.84153C184.793 7.20416 183.959 6.85435 183.071 6.85435H179.363Z" fill="white"/>
<path d="M204.637 6.85464H200.93C199.097 6.85464 197.607 8.36628 197.607 10.2244V13.9856H201.316C202.202 13.9856 203.036 13.6355 203.664 12.9982C204.292 12.3626 204.637 11.5153 204.637 10.6158V6.85464Z" fill="white"/>
<path d="M192 11.7361L187.367 16.4395C186.318 17.5037 186.318 19.2332 187.367 20.2974L192 25.0002L196.635 20.2974C197.684 19.2332 197.684 17.5037 196.635 16.4395L192 11.7361Z" fill="white"/>
<path d="M206.215 16.4388L204.745 14.9474L203.275 16.4388C202.226 17.5028 202.226 19.2335 203.275 20.2975L204.745 21.7893L206.215 20.2975C207.264 19.2335 207.264 17.5028 206.215 16.4388Z" fill="white"/>
<path d="M179.256 14.9487L177.786 16.4399C176.738 17.5034 176.738 19.234 177.786 20.2991L179.256 21.7903L180.727 20.2991C181.775 19.234 181.775 17.5034 180.727 16.4399L179.256 14.9487Z" fill="white"/>
<path d="M185.675 18.3689C185.675 19.2461 184.973 19.9573 184.108 19.9573C183.244 19.9573 182.543 19.2461 182.543 18.3689C182.543 17.49 183.244 16.7789 184.108 16.7789C184.973 16.7789 185.675 17.49 185.675 18.3689Z" fill="white"/>
<path d="M201.458 18.3674C201.458 19.2463 200.757 19.9583 199.892 19.9583C199.026 19.9583 198.326 19.2463 198.326 18.3674C198.326 17.4903 199.026 16.7783 199.892 16.7783C200.757 16.7783 201.458 17.4903 201.458 18.3674Z" fill="white"/>
<path d="M196.815 11.0239C196.815 11.9007 196.114 12.6116 195.25 12.6116C194.384 12.6116 193.684 11.9007 193.684 11.0239C193.684 10.1453 194.384 9.43448 195.25 9.43448C196.114 9.43448 196.815 10.1453 196.815 11.0239Z" fill="white"/>
<path d="M190.318 11.0231C190.318 11.9018 189.617 12.6116 188.751 12.6116C187.887 12.6116 187.186 11.9018 187.186 11.0231C187.186 10.1462 187.887 9.43467 188.751 9.43467C189.617 9.43467 190.318 10.1462 190.318 11.0231Z" fill="white"/>
<defs>
<linearGradient id="paint0_linear_260_163" x1="0" y1="17.0002" x2="167" y2="17.0002" gradientUnits="userSpaceOnUse">
<stop stop-color="white"/>
<stop offset="1" stop-color="white" stop-opacity="0"/>
</linearGradient>
<linearGradient id="paint1_linear_260_163" x1="384" y1="17.3538" x2="217" y2="17.3538" gradientUnits="userSpaceOnUse">
<stop stop-color="white"/>
<stop offset="1" stop-color="white" stop-opacity="0"/>
</linearGradient>
</defs>
</svg>
