<svg width="384" height="25" viewBox="0 0 384 25" fill="none" xmlns="http://www.w3.org/2000/svg">
<path d="M167 11.7429H8.45865C8.11764 9.61917 6.37035 8.00037 4.26096 8.00037C1.909 8.00037 0 10.0128 0 12.5004C0 14.9843 1.909 17.0004 4.26096 17.0004C6.37035 17.0004 8.11764 15.3816 8.45865 13.2578H167V11.7429Z" fill="url(#paint0_linear_259_21)"/>
<path d="M217 12.0965H375.541C375.882 9.97269 377.63 8.35388 379.739 8.35388C382.091 8.35388 384 10.3663 384 12.8539C384 15.3378 382.091 17.3539 379.739 17.3539C377.63 17.3539 375.882 15.7351 375.541 13.6113H217V12.0965Z" fill="url(#paint1_linear_259_21)"/>
<path d="M191.998 2.67029e-05L189.378 2.65899C188.082 3.97368 188.082 6.11092 189.378 7.42561L191.998 10.0863L194.622 7.42561C195.248 6.78913 195.594 5.94224 195.594 5.04317C195.594 4.14236 195.248 3.2972 194.622 2.65899L191.998 2.67029e-05Z" fill="#343434"/>
<path d="M179.363 6.85447V10.6165C179.363 12.4731 180.853 13.9867 182.685 13.9867H186.392V10.223C186.392 9.32325 186.047 8.47735 185.419 7.84165C184.793 7.20428 183.959 6.85447 183.071 6.85447H179.363Z" fill="#343434"/>
<path d="M204.637 6.85477H200.93C199.097 6.85477 197.607 8.3664 197.607 10.2245V13.9857H201.316C202.202 13.9857 203.036 13.6356 203.664 12.9983C204.292 12.3628 204.637 11.5154 204.637 10.6159V6.85477Z" fill="#343434"/>
<path d="M192 11.7362L187.367 16.4396C186.318 17.5039 186.318 19.2333 187.367 20.2975L192 25.0004L196.635 20.2975C197.684 19.2333 197.684 17.5039 196.635 16.4396L192 11.7362Z" fill="#343434"/>
<path d="M206.215 16.4389L204.745 14.9475L203.275 16.4389C202.226 17.5029 202.226 19.2337 203.275 20.2976L204.745 21.7894L206.215 20.2976C207.264 19.2337 207.264 17.5029 206.215 16.4389Z" fill="#343434"/>
<path d="M179.256 14.9488L177.786 16.44C176.738 17.5035 176.738 19.2341 177.786 20.2992L179.256 21.7904L180.727 20.2992C181.775 19.2341 181.775 17.5035 180.727 16.44L179.256 14.9488Z" fill="#343434"/>
<path d="M185.675 18.369C185.675 19.2462 184.973 19.9574 184.108 19.9574C183.244 19.9574 182.543 19.2462 182.543 18.369C182.543 17.4901 183.244 16.779 184.108 16.779C184.973 16.779 185.675 17.4901 185.675 18.369Z" fill="#343434"/>
<path d="M201.458 18.3675C201.458 19.2464 200.757 19.9584 199.892 19.9584C199.026 19.9584 198.326 19.2464 198.326 18.3675C198.326 17.4904 199.026 16.7784 199.892 16.7784C200.757 16.7784 201.458 17.4904 201.458 18.3675Z" fill="#343434"/>
<path d="M196.815 11.024C196.815 11.9008 196.114 12.6117 195.25 12.6117C194.384 12.6117 193.684 11.9008 193.684 11.024C193.684 10.1455 194.384 9.4346 195.25 9.4346C196.114 9.4346 196.815 10.1455 196.815 11.024Z" fill="#343434"/>
<path d="M190.318 11.0233C190.318 11.9019 189.617 12.6117 188.751 12.6117C187.887 12.6117 187.186 11.9019 187.186 11.0233C187.186 10.1463 187.887 9.4348 188.751 9.4348C189.617 9.4348 190.318 10.1463 190.318 11.0233Z" fill="#343434"/>
<defs>
<linearGradient id="paint0_linear_259_21" x1="0" y1="17.0004" x2="167" y2="17.0004" gradientUnits="userSpaceOnUse">
<stop stop-color="white"/>
<stop offset="0.0001" stop-color="#343434"/>
<stop offset="1" stop-color="#343434" stop-opacity="0"/>
</linearGradient>
<linearGradient id="paint1_linear_259_21" x1="384" y1="17.3539" x2="217" y2="17.3539" gradientUnits="userSpaceOnUse">
<stop stop-color="#343434"/>
<stop offset="1" stop-color="#343434" stop-opacity="0"/>
</linearGradient>
</defs>
</svg>
