<svg width="53" height="50" viewBox="0 0 53 50" fill="none" xmlns="http://www.w3.org/2000/svg">
<path d="M51.678 25.8104C51.6423 24.358 51.5351 22.8818 51.2137 21.4651C50.6899 19.1794 49.4518 17.2985 47.0946 16.5485C44.5113 15.727 42.2018 16.5008 40.1185 18.108C40.0113 18.1913 39.9161 18.358 39.9161 18.477C39.9042 20.0723 39.9042 21.6556 39.9042 23.2389C40.6661 23.0842 41.3446 22.8818 42.0351 22.8223C42.9637 22.7389 43.8327 22.9294 44.3684 23.8104C44.9042 24.6794 45.2375 25.6437 45.2494 26.6556C45.2851 30.5485 45.2851 34.4413 45.2494 38.3223C45.2375 40.0365 44.3327 41.1794 42.7375 41.727C42.6065 41.7746 42.4161 41.9651 42.4161 42.0842C42.4042 44.0008 42.428 45.9175 42.4399 47.8342C42.4399 48.1556 42.5708 48.2985 42.928 48.2985C46.3208 48.3342 49.7256 45.9889 50.9042 42.7627C51.7137 40.5485 51.8089 38.2389 51.797 35.9175C51.7732 32.5723 51.7732 29.1913 51.678 25.8104ZM44.9637 8.4175C46.6184 8.23893 48.2851 8.04846 49.9399 7.86988C50.2137 7.84608 50.3565 7.77465 50.3565 7.46512C50.3446 5.53655 50.3565 3.59608 50.3565 1.57227C47.6542 1.88179 45.047 2.1675 42.4518 2.47703C39.4756 2.82227 36.5589 3.19131 33.5827 3.51274C33.4875 4.73893 33.3923 6.02465 33.3089 7.27465C33.2613 8.06036 33.2256 8.84608 33.1899 9.67941C34.8446 9.50084 36.428 9.33417 38.0113 9.1675C40.3327 8.9175 42.6423 8.6675 44.9637 8.4175ZM38.3565 28.2151C38.4399 24.8937 38.5113 21.5723 38.6065 18.2627C38.6542 16.3699 38.7375 14.477 38.7851 12.5723C38.797 12.0127 38.7851 11.4532 38.7851 10.8699C38.5113 10.8699 38.3208 10.858 38.1423 10.8699C36.6661 10.9413 35.1899 11.0485 33.7018 11.0842C33.178 11.0961 33.0589 11.2985 33.047 11.7508C33.0232 12.7985 32.9756 13.8342 32.9399 14.8818C32.7851 18.9889 32.6304 23.108 32.4875 27.2151C32.4637 27.7627 32.4875 28.3104 32.4875 28.9532C34.3685 28.8937 36.1661 28.8342 37.9756 28.7746C38.3684 28.7627 38.3565 28.5008 38.3565 28.2151ZM40.6661 41.6675C39.2494 41.5127 38.5113 40.1437 38.4637 38.8104C38.4042 37.2032 38.3684 35.5842 38.3446 33.977C38.3446 33.5723 38.2256 33.4056 37.7851 33.4175C36.2137 33.4651 34.6304 33.5008 33.047 33.5127C32.6184 33.5127 32.547 33.6913 32.5589 34.0604C32.5827 35.0842 32.5708 36.108 32.6065 37.1318C32.6542 38.7032 32.6065 40.2985 32.8446 41.8461C33.1661 43.8223 34.1304 45.5723 35.8089 46.727C37.297 47.7508 39.047 48.1556 40.9637 48.3818C40.9637 46.1913 40.9637 44.0961 40.9518 41.9889C40.9637 41.8818 40.7851 41.6794 40.6661 41.6675ZM1.35654 24.5127H6.4875C6.4875 22.9889 6.46369 21.5366 6.4875 20.0842C6.54702 17.1199 7.38035 16.2032 10.297 15.8461C10.3565 15.8342 10.4042 15.7746 10.5232 15.7032V10.858C7.04702 10.4651 3.22559 12.9056 1.97559 16.2985C0.963686 18.977 1.4994 21.7508 1.35654 24.5127ZM9.65416 37.1318C7.36845 37.0366 6.68988 36.3104 6.64226 34.0127C6.60654 32.2627 6.64226 30.5127 6.60654 28.7627C6.59464 28.0246 6.51131 27.2746 6.45178 26.5246H1.38035C1.38035 29.2389 1.2494 31.8461 1.40416 34.4413C1.7375 39.7627 4.58273 42.7508 9.58273 43.358C10.2851 43.4413 10.547 43.2508 10.5232 42.5485C10.4875 41.0366 10.4994 39.5127 10.5232 38.0008C10.5351 37.3461 10.297 37.1556 9.65416 37.1318ZM22.4042 18.2746C22.4161 19.358 22.4161 20.4532 22.428 21.5366C22.428 22.2746 22.428 23.0127 22.428 23.7389H28.2613C28.2613 21.227 28.3684 18.8461 28.2256 16.4889C28.1065 14.3818 27.0827 12.6556 25.2613 11.4889C23.3923 10.2866 21.3089 10.108 19.1661 10.2866C18.9637 10.2985 18.6423 10.6199 18.6304 10.8104C18.5827 12.3461 18.6065 13.8937 18.6065 15.477C19.0589 15.5008 19.3804 15.5246 19.7018 15.5366C21.6542 15.608 22.3684 16.3342 22.4042 18.2746ZM11.5827 48.4889H17.3684V5.08417C15.3804 5.29846 13.4875 5.50084 11.5827 5.70322V48.4889ZM28.3089 25.8104C26.6065 25.8104 25.0351 25.8342 23.4637 25.7985C22.7256 25.7746 22.4875 26.0366 22.4875 26.7746C22.5113 28.858 22.4399 30.9294 22.4518 33.0127C22.4637 35.6675 21.4399 37.108 18.9042 37.358C18.8208 37.3699 18.7375 37.4413 18.6661 37.477V42.9056C23.6542 43.1794 26.8446 40.5246 27.8565 36.6794C28.8208 33.108 28.0946 29.477 28.3089 25.8104Z" fill="url(#paint0_linear_305_2253)"/>
<defs>
<linearGradient id="paint0_linear_305_2253" x1="4.45654" y1="25.0292" x2="52.1623" y2="25.0292" gradientUnits="userSpaceOnUse">
<stop offset="0.0344" stop-color="#273580"/>
<stop offset="0.2149" stop-color="#46317C"/>
<stop offset="0.6071" stop-color="#942673"/>
<stop offset="0.8615" stop-color="#CA1E6D"/>
</linearGradient>
</defs>
</svg>
