<svg width="208" height="88" viewBox="0 0 208 88" fill="none" xmlns="http://www.w3.org/2000/svg">
<path d="M167.843 20.4655L166.546 14.9838L165.22 20.4753L167.843 20.4655ZM168.373 21.4438L164.905 21.4399L161.957 33.7C161.776 34.4913 161.641 35.1137 161.554 35.5664C161.461 36.0202 161.414 36.5097 161.414 37.0353C161.414 37.7965 161.676 38.3231 162.202 38.6148C162.52 38.7921 163.13 38.9382 164.03 39.0554H165.207V39.8018H157.716V39.0554H159.501L166.247 10.1087H167.034L174.477 34.0041C174.68 34.6782 174.907 35.3656 175.15 36.0684C175.4 36.7706 175.655 37.3502 175.913 37.804C176.176 38.2581 176.465 38.5657 176.785 38.7256C177.103 38.8866 177.525 38.9973 178.046 39.0554V39.8018H171.169V39.0554L173.816 39.0588L168.373 21.4438Z" fill="#343434"/>
<path d="M180.643 25.3937L185.213 19.9035L185.78 20.3857L184.693 21.7046V23.2423C185.447 22.4805 186.085 21.9392 186.609 21.617C187.365 21.1485 188.175 20.9133 189.047 20.9133C189.395 20.9133 189.781 20.965 190.198 21.0674C190.62 21.1707 191.049 21.3094 191.484 21.4856V19.7708H192.225V27.7655H191.484V27.458V26.5811C191.484 25.994 191.471 25.5191 191.441 25.1525C191.41 24.786 191.304 24.3701 191.113 23.8992C190.924 23.4328 190.62 23.0145 190.198 22.6478C189.781 22.2828 189.291 22.0549 188.742 21.9678C187.988 21.8507 187.187 22.1426 186.347 22.8471C185.621 23.4622 185.069 24.193 184.693 25.0418V37.1225C184.693 38.0303 184.894 38.6011 185.302 38.8349C185.564 38.9839 186.202 39.0554 187.219 39.0554V39.8018H180.774V39.0554H182.734V24.0322L181.209 25.8759L180.643 25.3937Z" fill="#343434"/>
<path d="M199.815 22.2325V34.2234C199.815 35.6589 200.107 36.867 200.686 37.8477C201.268 38.8279 202.107 39.3199 203.213 39.3199C204.081 39.3199 204.849 39.0852 205.52 38.6152C206.186 38.1488 206.824 37.5041 207.433 36.6838L208 36.9481C207.915 37.9435 207.447 38.7639 206.608 39.4075C205.764 40.0507 204.821 40.373 203.776 40.373C202.876 40.373 202.023 40.1826 201.207 39.8021C200.396 39.4223 199.698 38.8663 199.118 38.133C198.536 37.4024 198.183 36.6027 198.05 35.74C197.924 34.8765 197.856 34.1078 197.856 33.4322V22.2325H195.681V21.2655H197.856V14.096L199.815 11.8545V21.2655H203.56V22.2325H199.815Z" fill="#343434"/>
<path d="M14.0199 66.1266H5.09402V82.9066C5.09402 83.7554 5.2963 84.2894 5.70458 84.5093C6.1116 84.7282 6.83824 84.838 7.87953 84.838V85.5845H0.350847V84.838H2.78922V60.1045C2.78922 59.2572 2.5832 58.7232 2.17867 58.5043C1.77164 58.2854 1.04503 58.1756 0 58.1756V57.4291H7.53246V58.1756H5.09402V65.1597H14.0199V60.0947C14.0199 59.2523 13.8188 58.7209 13.4093 58.5028C13.0023 58.2854 12.2794 58.1756 11.2344 58.1756V57.4291H18.7631V58.1756H16.3259V82.9091C16.3259 83.7564 16.5307 84.2917 16.9364 84.5093C17.3435 84.7282 18.0702 84.838 19.1152 84.838V85.5845H11.5827V84.838H14.0199V66.1266Z" fill="#343434"/>
<path d="M31.7689 68.0581C29.3293 68.0581 27.3566 68.8784 25.8472 70.5169C24.3377 72.1581 23.5836 74.1068 23.5836 76.3604C23.5836 78.441 24.4013 80.366 26.0432 82.1375C27.6825 83.9089 29.5915 84.7946 31.7689 84.7946C34.1774 84.7946 36.1501 83.9311 37.6883 82.2039C39.1416 80.5923 39.867 78.6452 39.867 76.3604C39.867 74.31 39.0842 72.4376 37.5147 70.7374C35.8604 68.9522 33.9477 68.0581 31.7689 68.0581ZM38.3438 82.9066C37.2988 83.9311 36.1426 84.7283 34.8829 85.299C33.6168 85.8713 32.2747 86.1553 30.8538 86.1553C28.4167 86.1553 26.3254 85.2489 24.5874 83.4331C22.8432 81.6174 21.9717 79.4792 21.9717 77.0199C21.9717 74.2371 23.0167 71.8505 25.108 69.8601C26.1518 68.8635 27.3067 68.0886 28.569 67.5315C29.83 66.9755 31.1722 66.6959 32.598 66.6959C35.0352 66.6959 37.1252 67.5906 38.8644 69.3754C40.6086 71.163 41.4764 73.2864 41.4764 75.7453C41.4764 78.528 40.4301 80.9146 38.3438 82.9066Z" fill="#343434"/>
<path d="M56.9045 85.5845V83.9606C56.3801 84.5166 55.6996 85.0225 54.8569 85.4762C54.0141 85.9279 53.245 86.1553 52.5508 86.1553C50.7217 86.1553 49.387 85.5122 48.543 84.2229C47.8201 83.1402 47.4555 81.6174 47.4555 79.6548V69.9477C47.4555 69.0398 47.2882 68.491 46.9561 68.2992C46.6227 68.1097 45.946 68.0147 44.9297 68.0147V67.2682H49.4144V79.0398C49.4144 81.0613 49.7328 82.5769 50.3708 83.5866C51.0126 84.5969 51.9128 85.1023 53.0714 85.1023C54.2338 85.1023 55.1615 84.6116 55.8594 83.6299C56.5536 82.6507 56.9045 81.5435 56.9045 80.3143V69.9477C56.9045 69.0398 56.7346 68.491 56.4013 68.2992C56.0679 68.1097 55.395 68.0147 54.3787 68.0147V67.2682H58.8646V82.9066C58.8646 83.8145 59.0657 84.3838 59.474 84.6175C59.7324 84.7667 60.3704 84.838 61.3867 84.838V85.5845H56.9045Z" fill="#343434"/>
<path d="M77.8034 65.7305H78.5425V73.066H77.8034V72.4509C77.8034 70.9869 77.5686 69.8452 77.1042 69.025C76.4961 67.9705 75.496 67.4429 74.1002 67.4429C73.2312 67.4429 72.4996 67.7145 71.904 68.2558C71.3085 68.7987 71.01 69.5245 71.01 70.4299C71.01 71.2812 71.3721 71.9381 72.0988 72.4065C72.361 72.5838 73.1014 72.8913 74.32 73.3293C76.8145 74.2681 78.3827 74.9556 79.022 75.3934C80.5302 76.448 81.2856 77.9278 81.2856 79.8321C81.2856 81.8226 80.489 83.4045 78.8908 84.5757C77.4388 85.6302 75.6983 86.1553 73.6682 86.1553C71.025 86.1553 69.0099 85.4836 67.6165 84.1353C66.4829 83.0527 65.916 81.8226 65.916 80.4462C65.916 79.0988 66.3655 77.9562 67.2657 77.0199C68.1659 76.0839 69.2846 75.6139 70.618 75.6139C71.6069 75.6139 72.4846 75.8782 73.2537 76.4048C74.0215 76.9327 74.4049 77.6782 74.4049 78.6452C74.4049 79.2603 74.2313 79.8089 73.8842 80.2921C73.5371 80.7759 73.0739 81.017 72.4921 81.017C72.0563 81.017 71.8366 80.8556 71.8366 80.5332C71.8366 80.4166 71.904 80.1607 72.0351 79.7656C72.1662 79.3685 72.2299 79.0841 72.2299 78.9069C72.2299 78.3509 71.9677 77.8834 71.447 77.5021C70.9226 77.1222 70.372 76.9327 69.7927 76.9327C68.9487 76.9327 68.2621 77.2019 67.7227 77.7446C67.1883 78.2869 66.9186 78.9823 66.9186 79.8321C66.9186 81.295 67.6652 82.5916 69.1622 83.7195C70.6567 84.8454 72.4172 85.4098 74.451 85.4098C75.8993 85.4098 77.1117 84.9487 78.0856 84.0261C79.0582 83.102 79.5426 81.8963 79.5426 80.4019C79.5426 78.966 79.0219 77.8553 77.9757 77.0631C77.3676 76.5942 76.169 76.0602 74.3836 75.46C72.6019 74.8611 71.4745 74.3995 71.01 74.0762C69.9375 73.3455 69.3982 72.2909 69.3982 70.9146C69.3982 69.6253 69.8839 68.6018 70.859 67.8376C71.8291 67.0774 72.984 66.6959 74.32 66.6959C74.8418 66.6959 75.3438 66.7624 75.8232 66.8943C76.3001 67.0271 76.8607 67.2093 77.4975 67.4429L77.8034 67.5758V65.7305Z" fill="#343434"/>
<path d="M89.4395 71.5296H102.891C102.137 70.4456 101.153 69.5958 99.9335 68.9807C98.7149 68.3656 97.4352 68.0581 96.1005 68.0581C94.7645 68.0581 93.5035 68.3583 92.3137 68.9585C91.1226 69.5599 90.1662 70.4162 89.4395 71.5296ZM105.156 79.1717L105.812 79.4792C104.94 81.5888 103.647 83.2274 101.936 84.3986C100.221 85.5711 98.2193 86.1553 95.9257 86.1553C93.3712 86.1553 91.1538 85.2784 89.266 83.5202C87.3807 81.7635 86.4355 79.5973 86.4355 77.0199C86.4355 74.2091 87.5342 71.7841 89.7217 69.7494C91.9154 67.7145 94.4312 66.6959 97.2766 66.6959C99.1045 66.6959 100.788 67.2299 102.328 68.2992C103.866 69.3705 104.925 70.768 105.507 72.4942H88.8764C88.6142 73.0216 88.4082 73.622 88.2659 74.2961C88.1173 74.9703 88.0474 75.6139 88.0474 76.2275C88.0474 78.5714 88.9114 80.5864 90.6369 82.2693C92.3661 83.9533 94.4037 84.7946 96.7547 84.7946C98.6126 84.7946 100.267 84.2967 101.72 83.3012C103.168 82.3048 104.316 80.9294 105.156 79.1717Z" fill="#343434"/>
<path d="M150.13 42.9229H112.819V-0.000366211H150.13V42.9229Z" fill="#343434"/>
<path fill-rule="evenodd" clip-rule="evenodd" d="M131.135 15.3373C130.864 14.9942 127.331 8.53576 128.518 5.81804C129.322 3.97909 129.918 8.10028 131.616 8.09637L132.353 7.3326C135.6 3.24442 136.283 8.37339 134.493 11.4612C133.882 12.5166 132.086 15.1099 131.135 15.3373ZM131.297 32.035C136.636 18.9974 129.975 18.9187 132.843 15.693C135.708 12.4724 135.874 12.711 140.349 10.4303C140.364 10.4238 140.378 10.4165 140.392 10.4106C140.787 10.1744 140.847 9.72167 140.711 10.66C140.706 10.6985 140.701 10.7378 140.695 10.7806C139.69 17.4129 140.556 17.3918 140.368 20.3885C140.116 24.4039 138.746 25.7955 137.433 28.8842C136.869 29.8403 136.019 30.6572 134.945 31.0066C133.883 31.7482 132.822 32.1517 131.297 32.035ZM128.053 26.0292C127.912 24.2415 128.113 22.3263 129.418 20.4205C129.774 19.9028 130.477 18.7096 130.87 18.3069C133.57 20.8437 131.018 27.7869 130.577 29.8684C130.419 30.6031 130.429 31.1542 129.72 30.7877C129.22 30.5278 128.846 30.0544 128.582 29.4442L128.568 29.4304C128.567 29.4181 128.564 29.4083 128.563 29.396C128.178 28.4846 128.03 27.2776 128.053 26.0292ZM127.258 29.614C128.975 32.1393 126.942 34.7941 122.043 29.4442C117.699 24.7016 125.283 16.906 122.49 9.46922C122.465 9.40422 122.441 9.34274 122.419 9.28618C121.978 8.20206 121.763 8.47026 122.816 8.97226C124.732 9.8644 127.294 10.4032 128.322 12.6333C129.926 16.1148 130.125 16.0139 128.323 19.0501C126.64 21.8909 125.077 26.4066 127.258 29.614ZM119.352 22.7618C118.031 27.9149 118.421 30.7039 123.691 33.1176C125.464 33.9305 126.797 33.5369 128.398 34.0486C129.066 36.4869 125.227 39.8182 127.572 38.9276C128.086 38.7322 128.461 37.7013 128.986 36.7402C129.624 35.5741 129.949 34.302 130.689 33.4226C135.821 33.2589 137.776 31.6891 139.812 28.1584C141.766 24.7705 141.884 19.119 141.544 15.2931C141.474 14.49 141.718 12.0271 141.956 11.2816C142.508 9.5666 143.467 9.38557 143.703 7.71392C141.641 7.82956 139.525 9.84223 137.187 10.0253C137.333 8.46686 136.881 6.34598 135.854 5.18565C134.033 3.12777 132.76 5.10692 131.151 5.62505C131.151 5.62366 129.712 2.73019 127.866 4.61386C126.545 5.96315 126.829 7.21305 126.852 8.95991C126.006 8.84578 121.64 6.58067 119.762 6.67074C119.204 6.69782 119.612 6.58559 119.248 6.79974C118.587 8.50868 122.645 8.42113 121.866 14.3014L119.352 22.7618Z" fill="white"/>
<path d="M5.09153 20.0133V35.4769C5.09153 37.1156 5.2376 38.0678 5.52352 38.3311C5.80943 38.5934 6.75961 38.7261 8.36773 38.7261H9.40277V39.4727H0.173564V38.7261H2.7855V13.9927C2.7855 13.1454 2.58322 12.61 2.17495 12.3925C1.76793 12.172 1.04503 12.0638 0 12.0638V11.3173H13.2758V9.5149H14.0161V19.0465H13.2758V17.9122C13.2758 16.6908 13.2333 15.8603 13.1471 15.4238C12.9711 14.4922 12.5741 13.7885 11.9498 13.3078C11.3243 12.8266 10.4703 12.4993 9.38156 12.3246C8.29033 12.1514 7.21031 12.0638 6.13657 12.0638H5.09153V19.0465H8.66365V14.6979H9.40277V25.1975H8.66365V24.6699C8.66365 23.0593 8.48883 21.9462 8.13923 21.3311C7.64606 20.4538 6.62973 20.0133 5.09153 20.0133Z" fill="#343434"/>
<path d="M21.6197 9.55811V36.7957C21.6197 37.6731 21.8108 38.2439 22.1866 38.5057C22.4201 38.6548 22.8845 38.7261 23.5787 38.7261V39.4727H17.7043V38.7261H19.6595V11.8867L17.8317 14.0386L17.2686 13.5597L21.8819 8.10993L22.4488 8.59215L21.6197 9.55811Z" fill="#343434"/>
<path d="M37.354 21.9453C34.9156 21.9453 32.9391 22.7656 31.4296 24.4043C29.9201 26.0453 29.1685 27.994 29.1685 30.2476C29.1685 32.3282 29.9876 34.2532 31.6282 36.0247C33.2688 37.7953 35.174 38.682 37.354 38.682C39.7624 38.682 41.7364 37.8183 43.2733 36.0901C44.7229 34.4795 45.4495 32.5324 45.4495 30.2476C45.4495 28.1972 44.6667 26.3248 43.101 24.6247C41.4454 22.8384 39.5289 21.9453 37.354 21.9453ZM43.9263 36.7924C42.8813 37.8183 41.7289 38.6155 40.4641 39.1862C39.2031 39.7585 37.8597 40.0425 36.4401 40.0425C33.9992 40.0425 31.9116 39.1361 30.1674 37.3203C28.4294 35.5046 27.5566 33.3664 27.5566 30.9071C27.5566 28.1244 28.6017 25.7378 30.693 23.7473C31.738 22.7509 32.8892 21.9758 34.1515 21.4173C35.415 20.8627 36.7584 20.5833 38.1792 20.5833C40.6164 20.5833 42.7064 21.4764 44.4507 23.2626C46.1899 25.0504 47.0614 27.1736 47.0614 29.6326C47.0614 32.4152 46.0164 34.8019 43.9263 36.7924Z" fill="#343434"/>
<path d="M68.0187 21.9019L61.8784 40.0424L61.2017 40.0365L58.8182 32.8261L56.1638 40.039L55.5645 40.0439L50.694 25.4572C50.2008 23.9933 49.6839 23.0353 49.1445 22.5835C48.6101 22.1298 47.9047 21.9019 47.0332 21.9019V21.1555H52.5605V21.9019H50.9524L56.029 37.4114L58.2364 31.4006L56.436 25.7688C56.0577 24.5385 55.7243 23.7044 55.4346 23.2625C54.8528 22.3562 54.07 21.9019 53.0849 21.9019V21.1555H58.0479V21.9019H56.6095L58.8681 28.7335L60.6423 23.302C60.6423 22.7473 60.4925 22.3758 60.1879 22.1863C59.887 21.9969 59.3451 21.9019 58.5685 21.9019V21.1555H63.7499V21.9019L62.4165 21.9069L59.636 30.2008L61.6586 37.4295L65.1845 26.7332C65.3331 26.3223 65.5066 25.7451 65.7089 24.9986C65.9099 24.2507 66.0273 23.7325 66.0585 23.4396C66.0585 22.4137 65.4642 21.9019 64.2744 21.9019V21.1555H69.5419V21.9019H68.0187Z" fill="#343434"/>
<path d="M74.75 25.417H88.2043C87.449 24.3328 86.4601 23.483 85.2428 22.8679C84.023 22.2529 82.7482 21.9453 81.411 21.9453C80.0763 21.9453 78.814 22.2455 77.6242 22.8459C76.4343 23.4461 75.4729 24.3023 74.75 25.417ZM90.4679 33.0589L91.1197 33.3664C90.2482 35.476 88.9584 37.1146 87.2429 38.2858C85.5324 39.4585 83.531 40.0425 81.2387 40.0425C78.6842 40.0425 76.4618 39.1642 74.5777 37.4074C72.6887 35.6507 71.7461 33.4846 71.7461 30.9071C71.7461 28.0949 72.841 25.6713 75.0347 23.6356C77.2247 21.6019 79.743 20.5833 82.5884 20.5833C84.4163 20.5833 86.0993 21.1171 87.6375 22.1864C89.1745 23.2566 90.2345 24.6552 90.8138 26.3814H74.1845C73.921 26.909 73.72 27.5092 73.5752 28.1834C73.4304 28.8565 73.3579 29.4997 73.3579 30.1148C73.3579 32.4586 74.2194 34.4722 75.9486 36.1566C77.6741 37.8405 79.7155 38.682 82.064 38.682C83.9206 38.682 85.5749 38.1839 87.0269 37.1874C88.4802 36.192 89.6239 34.8156 90.4679 33.0589Z" fill="#343434"/>
<path d="M94.2324 25.964L98.8021 20.4724L99.3689 20.9546L98.2777 22.2748V23.8111C99.0331 23.0499 99.6736 22.5086 100.194 22.1872C100.95 21.7187 101.76 21.4825 102.631 21.4825C102.983 21.4825 103.365 21.5342 103.787 21.6361C104.208 21.7394 104.634 21.8797 105.069 22.0543V20.341H105.81V28.3358H105.069V28.0282V27.1499C105.069 26.5643 105.056 26.0885 105.027 25.7219C104.999 25.3562 104.889 24.9395 104.701 24.4695C104.513 24.003 104.208 23.5848 103.787 23.2182C103.365 22.8516 102.881 22.6252 102.327 22.5367C101.573 22.421 100.776 22.7128 99.932 23.4165C99.2091 24.0316 98.6572 24.7622 98.2777 25.6112V37.6927C98.2777 38.6005 98.4837 39.1703 98.887 39.4041C99.1492 39.5528 99.7872 39.6241 100.803 39.6241V40.3711H94.3623V39.6241H96.3187V24.6009L94.7955 26.4462L94.2324 25.964Z" fill="#343434"/>
<path d="M117.265 64.2818V69.9334C118.133 69.9334 118.828 69.6726 119.348 69.1471C119.883 68.623 120.152 67.944 120.152 67.1089C120.152 66.2723 119.883 65.5918 119.348 65.0678C118.828 64.5437 118.133 64.2818 117.265 64.2818ZM116.571 69.9334V64.2818C115.711 64.2818 115.015 64.5437 114.487 65.0678C113.96 65.6006 113.697 66.2797 113.697 67.1089C113.697 67.9355 113.96 68.6146 114.487 69.1471C115.015 69.6726 115.711 69.9334 116.571 69.9334ZM117.265 71.4082H116.571V70.5731C115.516 70.5731 114.651 70.2533 113.977 69.6145C113.319 68.9601 112.99 68.1236 112.99 67.1089C112.99 66.0839 113.319 65.2523 113.977 64.6125C114.642 63.9655 115.507 63.6421 116.571 63.6421V62.8066H117.265V63.6421C118.344 63.6421 119.21 63.9655 119.858 64.6125C120.525 65.2523 120.859 66.0839 120.859 67.1089C120.859 68.1309 120.525 68.9675 119.858 69.6145C119.202 70.2533 118.336 70.5731 117.265 70.5731V71.4082Z" fill="#343434"/>
<path d="M121.59 71.4074V70.9537C122.044 70.9537 122.4 70.8243 122.655 70.5659C122.912 70.3091 123.039 69.9376 123.039 69.4538V62.8058H128.082V71.4074H127.376V63.4077H123.757V69.3924C123.757 70.0236 123.604 70.5256 123.295 70.8981C122.987 71.2711 122.592 71.4565 122.114 71.4565C121.837 71.4565 121.664 71.4408 121.59 71.4074Z" fill="#343434"/>
<path d="M134.011 70.8559C135.067 70.8559 135.924 70.5124 136.582 69.8236C137.238 69.1189 137.568 68.2134 137.568 67.1087C137.568 65.9926 137.238 65.0922 136.582 64.4047C135.924 63.707 135.067 63.359 134.011 63.359C132.963 63.359 132.112 63.707 131.452 64.4047C130.796 65.0922 130.466 65.9926 130.466 67.1087C130.466 68.2134 130.796 69.1189 131.452 69.8236C132.112 70.5124 132.963 70.8559 134.011 70.8559ZM134.011 62.7204C135.286 62.7204 136.313 63.1264 137.092 63.9373C137.88 64.7403 138.275 65.7974 138.275 67.1087C138.275 68.4186 137.88 69.4756 137.092 70.2787C136.313 71.0896 135.286 71.4956 134.011 71.4956C132.752 71.4956 131.725 71.0896 130.929 70.2787C130.149 69.4668 129.761 68.4103 129.761 67.1087C129.761 65.8057 130.149 64.7478 130.929 63.9373C131.717 63.1264 132.744 62.7204 134.011 62.7204Z" fill="#343434"/>
<path d="M143.829 65.1661C143.829 64.6411 143.677 64.2203 143.372 63.9005C143.069 63.5807 142.664 63.4207 142.16 63.4207H140.661V66.8874H142.16C142.664 66.8874 143.069 66.7285 143.372 66.4135C143.677 66.0976 143.829 65.6819 143.829 65.1661ZM140.661 71.4082H139.956V62.8066H142.16C142.868 62.8066 143.443 63.0231 143.89 63.4576C144.33 63.8917 144.548 64.4615 144.548 65.1661C144.548 65.8713 144.33 66.4406 143.89 66.8751C143.461 67.3007 142.884 67.5134 142.16 67.5134H140.661V71.4082Z" fill="#343434"/>
<path d="M146.91 70.1067L152.331 62.8066H152.819V71.4082H152.137V64.1096L146.716 71.4082H146.217V62.8066H146.91V70.1067Z" fill="#343434"/>
<path d="M158.787 70.8559C159.858 70.8559 160.731 70.5026 161.406 69.7989L161.868 70.2418C161.08 71.0774 160.04 71.4956 158.751 71.4956C157.491 71.4956 156.464 71.0896 155.668 70.2787C154.889 69.4668 154.498 68.4103 154.498 67.1087C154.498 65.8057 154.889 64.7478 155.668 63.9373C156.457 63.1264 157.483 62.7204 158.751 62.7204C160.024 62.7204 161.063 63.1376 161.868 63.9742L161.406 64.4279C160.731 63.7158 159.858 63.359 158.787 63.359C157.722 63.359 156.858 63.707 156.192 64.4047C155.533 65.0922 155.205 65.9926 155.205 67.1087C155.205 68.2134 155.533 69.1189 156.192 69.8236C156.867 70.5124 157.73 70.8559 158.787 70.8559Z" fill="#343434"/>
<path d="M168.664 63.4085H166.143V71.4082H165.449V63.4085H162.927V62.8066H168.664V63.4085Z" fill="#343434"/>
<path d="M170.892 70.1067L176.312 62.8066H176.801V71.4082H176.119V64.1096L170.698 71.4082H170.198V62.8066H170.892V70.1067Z" fill="#343434"/>
<path d="M184.498 71.4082H183.621L179.712 66.9966L183.364 62.8066H184.243L180.575 66.9966L184.498 71.4082ZM179.493 71.4082H178.81V62.8066H179.493V71.4082Z" fill="#343434"/>
<path d="M191.368 68.0916L189.48 63.679L187.578 68.0916H191.368ZM193.596 71.4082H192.805L191.635 68.7288H187.313L186.155 71.4082H185.362L189.138 62.8066H189.808L193.596 71.4082Z" fill="#343434"/>
<path d="M114.963 78.1559V83.6731C114.963 84.5588 114.723 85.1853 114.244 85.5529H118.495V78.1559H114.963ZM119.422 88V86.1556H113.477V88H112.819V85.5789C113.275 85.5789 113.625 85.4176 113.873 85.0991C114.12 84.7793 114.244 84.3045 114.244 83.6731V77.5531H119.202V85.5529H120.078V88H119.422Z" fill="#343434"/>
<path d="M126.035 78.1555H122.284V81.51H125.62V82.1118H122.284V85.5525H126.096V86.1553H121.59V77.5527H126.035V78.1555Z" fill="#343434"/>
<path d="M133.404 86.1553H132.526L128.617 81.7438L132.272 77.5527H133.148L129.481 81.7438L133.404 86.1553ZM128.398 86.1553H127.716V77.5527H128.398V86.1553Z" fill="#343434"/>
<path d="M138.033 85.6025C139.088 85.6025 139.944 85.2595 140.601 84.5705C141.26 83.8653 141.588 82.96 141.588 81.8552C141.588 80.7407 141.26 79.8393 140.601 79.1513C139.944 78.4549 139.088 78.1071 138.033 78.1071C136.984 78.1071 136.131 78.4549 135.474 79.1513C134.816 79.8393 134.488 80.7407 134.488 81.8552C134.488 82.96 134.816 83.8653 135.474 84.5705C136.131 85.2595 136.984 85.6025 138.033 85.6025ZM138.033 77.4673C139.306 77.4673 140.335 77.8733 141.114 78.6838C141.901 79.4883 142.295 80.5438 142.295 81.8552C142.295 83.1657 141.901 84.2221 141.114 85.0257C140.335 85.8362 139.306 86.2422 138.033 86.2422C136.773 86.2422 135.746 85.8362 134.95 85.0257C134.171 84.2138 133.781 83.1583 133.781 81.8552C133.781 80.5528 134.171 79.4957 134.95 78.6838C135.738 77.8733 136.765 77.4673 138.033 77.4673Z" fill="#343434"/>
<path d="M147.849 79.9122C147.849 79.3882 147.697 78.9674 147.392 78.6476C147.089 78.3277 146.684 78.1664 146.181 78.1664H144.683V81.6331H146.181C146.684 81.6331 147.089 81.4746 147.392 81.1597C147.697 80.8448 147.849 80.4289 147.849 79.9122ZM144.683 86.1553H143.978V77.5527H146.181C146.888 77.5527 147.465 77.7703 147.91 78.2048C148.35 78.6387 148.567 79.2086 148.567 79.9122C148.567 80.6169 148.35 81.1868 147.91 81.6208C147.48 82.0464 146.903 82.2595 146.181 82.2595H144.683V86.1553Z" fill="#343434"/>
<path d="M0 53.7759H207.999V51.9527H0V53.7759Z" fill="#343434"/>
</svg>
