<svg width="106" height="92" viewBox="0 0 106 92" fill="none" xmlns="http://www.w3.org/2000/svg">
<path d="M15.489 7.932L19.545 21.816L16.373 31.748L8.83303 5.228H11.121V3.772H0.877031V5.228H2.43703C3.84103 5.228 4.72503 6.112 5.24503 7.932L14.137 37.728H15.957L20.273 23.948L24.381 37.728H26.201L36.601 5.228H39.617V3.772H30.569V5.228H31.141C33.065 5.228 34.053 6.06 34.053 7.568C34.053 8.14 33.949 8.764 33.741 9.44L26.617 31.748L22.353 17.344L26.357 5.228H29.373V3.772H21.729V5.228C23.081 5.488 23.809 6.32 23.809 7.568C23.809 8.14 23.705 8.764 23.497 9.44L21.625 15.056L18.973 5.228H20.689V3.772H12.421V5.228H12.681C14.085 5.228 14.969 6.112 15.489 7.932ZM50.1438 20.412V35.908H48.2198V37H56.6438V35.908H55.8638C54.2518 35.908 53.7838 34.816 53.7838 32.788V20.36C53.7838 16.72 51.9638 14.848 48.8438 14.848C46.8158 14.848 45.2038 15.472 43.4358 16.876V1.848L44.5278 0.807998L43.7998 0.0279987L37.4558 6.008L38.1838 6.788L39.7958 5.28V35.908H37.8718V37H46.2958V35.908H45.5158C43.9038 35.908 43.4358 34.816 43.4358 32.788V19.008C44.1638 17.292 45.5158 16.408 47.2318 16.408C49.0518 16.408 50.1438 17.708 50.1438 20.412ZM63.1897 32.788V15.94L64.2817 14.9L63.5537 14.12L57.2097 20.1L57.9377 20.828L59.5497 19.32V35.908H57.6257V37H66.0497V35.908H65.2697C63.6577 35.908 63.1897 34.816 63.1897 32.788ZM59.1857 6.944C59.1857 7.984 60.1737 8.972 61.2137 8.972C62.2537 8.972 63.1897 8.036 63.1897 6.944C63.1897 5.852 62.3057 4.968 61.2137 4.968C60.1217 4.968 59.1857 5.904 59.1857 6.944ZM68.4762 16.304V30.968C68.4762 35.076 71.1802 37.572 74.9242 37.572C78.8242 37.572 81.2162 34.452 81.2162 33.256C81.2162 32.788 80.9562 32.476 80.5402 32.476C79.7082 32.476 79.5002 33.568 79.0322 34.348C78.2002 35.7 76.9522 36.376 75.3922 36.376C73.2602 36.376 72.0642 34.972 72.0642 32.268V16.304H76.5362V15.316H72.0642V5.02L68.4762 8.504V15.316H66.3442L66.5522 16.304H68.4762ZM85.7459 20.464C86.9939 17.968 89.4899 16.512 92.8179 16.512C96.0419 16.512 98.6939 17.916 100.41 20.464H85.7459ZM104.986 30.292L103.998 29.772C101.814 33.516 98.6939 35.388 94.8979 35.388C89.3859 35.388 84.9659 30.188 84.9659 24.104C84.9659 23.272 85.1219 22.388 85.3299 21.4H105.142C102.958 17.084 99.3179 14.848 94.6899 14.848C87.3579 14.848 82.0539 19.944 82.0539 26.652C82.0539 32.944 86.5779 37.572 93.6499 37.572C98.4339 37.572 102.334 35.076 104.986 30.292ZM15.553 55.772H4.16502V57.228H5.10102C7.12902 57.228 7.64902 57.904 7.64902 60.296V87.544H4.16502V89H20.285V91.444H21.845V74.804H20.285V81.044C20.285 85.568 18.673 87.544 13.889 87.544H12.069V57.228H15.553V55.772ZM40.5975 84.788V73.92C40.5975 69.396 37.6855 66.848 33.5775 66.848C31.2375 66.848 29.2615 67.784 27.3895 69.604V65.548H26.4535V75.376H27.3895C27.8055 70.592 30.1455 67.992 33.0575 67.992C35.5535 67.992 36.9575 69.448 36.9575 72.308V76.104C35.6055 75.168 34.1495 74.7 32.5895 74.7C28.5855 74.7 24.8415 78.392 24.8415 82.552C24.8415 86.66 27.7015 89.572 31.6535 89.572C33.8375 89.572 35.6575 88.636 36.9575 86.92V89H43.4575V87.908H42.6775C41.0655 87.908 40.5975 86.816 40.5975 84.788ZM36.9575 85.048C36.1775 86.868 34.6695 87.908 32.9535 87.908C30.0935 87.908 27.7015 84.736 27.7015 80.888C27.7015 77.872 29.5735 75.896 32.1735 75.896C33.7855 75.896 35.2935 76.832 36.9575 78.6V85.048ZM44.448 89H50.012V86.972C52.352 88.688 54.744 89.572 57.448 89.572C64.208 89.572 69.148 84.788 69.148 78.548C69.148 71.736 63.948 66.848 57.396 66.848C54.38 66.848 51.936 67.732 50.012 69.448V53.848L51.104 52.808L50.376 52.028L44.032 58.008L44.76 58.788L46.372 57.28V87.908H44.448V89ZM50.012 85.776V72.1C51.364 69.656 54.276 67.94 57.396 67.94C62.336 67.94 65.612 71.58 65.612 76.676C65.612 83.28 61.556 87.856 56.096 87.856C53.964 87.856 52.04 87.18 50.012 85.776ZM75.4627 72.464C76.7107 69.968 79.2067 68.512 82.5347 68.512C85.7587 68.512 88.4107 69.916 90.1267 72.464H75.4627ZM94.7027 82.292L93.7147 81.772C91.5307 85.516 88.4107 87.388 84.6147 87.388C79.1027 87.388 74.6827 82.188 74.6827 76.104C74.6827 75.272 74.8387 74.388 75.0467 73.4H94.8587C92.6747 69.084 89.0347 66.848 84.4067 66.848C77.0747 66.848 71.7707 71.944 71.7707 78.652C71.7707 84.944 76.2947 89.572 83.3667 89.572C88.1507 89.572 92.0507 87.076 94.7027 82.292ZM96.9558 89H105.276V87.908H104.444C102.832 87.908 102.364 86.816 102.364 84.788V53.848L103.508 52.808L102.728 52.028L96.5398 58.008L97.2678 58.788L98.8798 57.28V87.908H96.9558V89Z" fill="#343434"/>
</svg>
