<svg width="165" height="70" viewBox="0 0 165 70" fill="none" xmlns="http://www.w3.org/2000/svg">
<path d="M133.145 16.2791L132.116 11.9186L131.064 16.2869L133.145 16.2791ZM133.566 17.0573L130.814 17.0542L128.476 26.8065C128.332 27.4359 128.225 27.931 128.156 28.2912C128.083 28.6521 128.045 29.0415 128.045 29.4596C128.045 30.0651 128.253 30.4839 128.67 30.716C128.923 30.857 129.406 30.9732 130.12 31.0664H131.054V31.6602H125.111V31.0664H126.528L131.879 8.0407H132.503L138.408 27.0484C138.568 27.5846 138.749 28.1314 138.942 28.6905C139.14 29.249 139.342 29.7101 139.547 30.071C139.755 30.4322 139.985 30.6769 140.238 30.8041C140.491 30.9322 140.826 31.0202 141.239 31.0664V31.6602H135.783V31.0664L137.883 31.0691L133.566 17.0573Z" fill="#343434"/>
<path d="M143.299 20.1992L146.925 15.832L147.374 16.2156L146.512 17.2647V18.4879C147.11 17.8819 147.616 17.4514 148.032 17.195C148.631 16.8224 149.274 16.6353 149.965 16.6353C150.242 16.6353 150.548 16.6764 150.879 16.7578C151.213 16.84 151.554 16.9503 151.899 17.0905V15.7264H152.487V22.0859H151.899V21.8413V21.1437C151.899 20.6768 151.889 20.299 151.865 20.0074C151.84 19.7158 151.756 19.385 151.605 19.0105C151.455 18.6394 151.213 18.3067 150.879 18.015C150.548 17.7246 150.16 17.5434 149.724 17.4741C149.126 17.3809 148.491 17.6131 147.824 18.1735C147.248 18.6628 146.81 19.2441 146.512 19.9193V29.5289C146.512 30.2511 146.671 30.7051 146.995 30.8911C147.203 31.0096 147.709 31.0664 148.515 31.0664V31.6602H143.403V31.0664H144.958V19.1162L143.748 20.5828L143.299 20.1992Z" fill="#343434"/>
<path d="M158.507 17.6843V27.2225C158.507 28.3644 158.739 29.3253 159.198 30.1054C159.66 30.8851 160.325 31.2765 161.203 31.2765C161.891 31.2765 162.5 31.0899 163.033 30.716C163.561 30.3449 164.067 29.8322 164.55 29.1796L165 29.3899C164.933 30.1817 164.561 30.8342 163.896 31.3462C163.226 31.8578 162.478 32.1143 161.649 32.1143C160.935 32.1143 160.259 31.9627 159.611 31.6601C158.968 31.358 158.415 30.9157 157.954 30.3324C157.493 29.7512 157.212 29.1151 157.107 28.4289C157.007 27.742 156.953 27.1306 156.953 26.5932V17.6843H155.228V16.9151H156.953V11.2121L158.507 9.42912V16.9151H161.478V17.6843H158.507Z" fill="#343434"/>
<path d="M11.1215 52.6013H4.04094V65.9489C4.04094 66.6241 4.2014 67.0489 4.52527 67.2239C4.84815 67.398 5.42457 67.4853 6.25059 67.4853V68.0791H0.278317V67.4853H2.21261V47.811C2.21261 47.137 2.04917 46.7123 1.72827 46.5381C1.40539 46.3639 0.82899 46.2767 0 46.2767V45.6829H5.97527V46.2767H4.04094V51.8321H11.1215V47.8032C11.1215 47.1331 10.9621 46.7104 10.6372 46.5369C10.3143 46.3639 9.74088 46.2767 8.91189 46.2767V45.6829H14.8842V46.2767H12.9508V65.9509C12.9508 66.6249 13.1133 67.0508 13.4352 67.2239C13.7581 67.398 14.3345 67.4853 15.1635 67.4853V68.0791H9.18822V67.4853H11.1215V52.6013Z" fill="#343434"/>
<path d="M25.2016 54.1377C23.2663 54.1377 21.7014 54.7903 20.504 56.0936C19.3066 57.3991 18.7083 58.9492 18.7083 60.7419C18.7083 62.3968 19.3571 63.9281 20.6595 65.3373C21.9599 66.7463 23.4743 67.4509 25.2016 67.4509C27.1121 67.4509 28.677 66.764 29.8972 65.3901C31.0501 64.1081 31.6255 62.5593 31.6255 60.7419C31.6255 59.1108 31.0045 57.6215 29.7595 56.269C28.4472 54.849 26.9299 54.1377 25.2016 54.1377ZM30.4172 65.949C29.5882 66.764 28.6711 67.3981 27.6717 67.8521C26.6674 68.3073 25.6027 68.5332 24.4756 68.5332C22.5423 68.5332 20.8833 67.8122 19.5047 66.3679C18.121 64.9235 17.4297 63.2227 17.4297 61.2664C17.4297 59.0529 18.2587 57.1544 19.9177 55.5712C20.7457 54.7784 21.6618 54.162 22.6631 53.7189C23.6634 53.2766 24.7282 53.0542 25.8592 53.0542C27.7925 53.0542 29.4505 53.7659 30.8302 55.1856C32.2138 56.6076 32.9022 58.2966 32.9022 60.2526C32.9022 62.4661 32.0722 64.3645 30.4172 65.949Z" fill="#343434"/>
<path d="M45.1408 68.0792V66.7874C44.7249 67.2297 44.1851 67.6322 43.5165 67.993C42.848 68.3523 42.2379 68.5332 41.6872 68.5332C40.2362 68.5332 39.1774 68.0217 38.5079 66.9961C37.9344 66.1349 37.6452 64.9235 37.6452 63.3624V55.6408C37.6452 54.9186 37.5125 54.4821 37.2491 54.3295C36.9846 54.1788 36.4478 54.1033 35.6416 54.1033V53.5094H39.1992V62.8732C39.1992 64.4812 39.4518 65.6868 39.9579 66.4899C40.467 67.2936 41.1811 67.6956 42.1002 67.6956C43.0223 67.6956 43.7582 67.3053 44.3118 66.5244C44.8625 65.7455 45.1408 64.8648 45.1408 63.887V55.6408C45.1408 54.9186 45.0061 54.4821 44.7417 54.3295C44.4772 54.1788 43.9434 54.1033 43.1372 54.1033V53.5094H46.6958V65.949C46.6958 66.6712 46.8553 67.1241 47.1791 67.31C47.3842 67.4286 47.8903 67.4854 48.6965 67.4854V68.0792H45.1408Z" fill="#343434"/>
<path d="M61.7189 52.2862H62.3053V58.1213H61.7189V57.632C61.7189 56.4675 61.5327 55.5593 61.1643 54.9069C60.682 54.0681 59.8886 53.6484 58.7813 53.6484C58.092 53.6484 57.5116 53.8645 57.0392 54.2951C56.5667 54.7268 56.33 55.3042 56.33 56.0244C56.33 56.7016 56.6172 57.2241 57.1937 57.5967C57.4017 57.7377 57.989 57.9823 58.9557 58.3307C60.9345 59.0775 62.1785 59.6244 62.6856 59.9727C63.8821 60.8115 64.4813 61.9886 64.4813 63.5034C64.4813 65.0867 63.8494 66.3451 62.5816 67.2767C61.4297 68.1155 60.0491 68.5332 58.4386 68.5332C56.3419 68.5332 54.7434 67.9989 53.638 66.9264C52.7387 66.0653 52.2891 65.0867 52.2891 63.9919C52.2891 62.9201 52.6456 62.0113 53.3597 61.2664C54.0738 60.5219 54.9613 60.148 56.019 60.148C56.8035 60.148 57.4997 60.3583 58.1098 60.7771C58.7189 61.1971 59.023 61.7901 59.023 62.5593C59.023 63.0486 58.8853 63.485 58.61 63.8694C58.3346 64.2541 57.9672 64.4459 57.5056 64.4459C57.16 64.4459 56.9857 64.3176 56.9857 64.0611C56.9857 63.9684 57.0391 63.7648 57.1431 63.4505C57.2471 63.1347 57.2976 62.9084 57.2976 62.7675C57.2976 62.3252 57.0897 61.9533 56.6766 61.65C56.2607 61.3478 55.8239 61.1971 55.3643 61.1971C54.6948 61.1971 54.1501 61.4112 53.7222 61.8429C53.2983 62.2743 53.0844 62.8274 53.0844 63.5034C53.0844 64.6671 53.6767 65.6985 54.8642 66.5956C56.0497 67.4913 57.4462 67.9402 59.0596 67.9402C60.2085 67.9402 61.1703 67.5734 61.9428 66.8395C62.7144 66.1044 63.0986 65.1454 63.0986 63.9566C63.0986 62.8145 62.6856 61.931 61.8556 61.3008C61.3733 60.9278 60.4225 60.5031 59.0061 60.0256C57.5928 59.5492 56.6984 59.1821 56.33 58.9248C55.4792 58.3436 55.0514 57.5047 55.0514 56.41C55.0514 55.3844 55.4366 54.5702 56.2102 53.9624C56.9797 53.3576 57.8959 53.0542 58.9557 53.0542C59.3697 53.0542 59.7678 53.1071 60.1481 53.212C60.5265 53.3177 60.9711 53.4625 61.4763 53.6484L61.7189 53.7541V52.2862Z" fill="#343434"/>
<path d="M70.9494 56.8992H81.6203C81.022 56.0369 80.2416 55.3609 79.2739 54.8716C78.3073 54.3823 77.2921 54.1377 76.2333 54.1377C75.1735 54.1377 74.1732 54.3765 73.2294 54.854C72.2845 55.3324 71.5258 56.0135 70.9494 56.8992ZM83.4169 62.9781L83.9369 63.2227C83.2456 64.9008 82.2195 66.2042 80.8626 67.1358C79.5017 68.0686 77.9141 68.5332 76.0946 68.5332C74.0682 68.5332 72.3092 67.8357 70.8117 66.4371C69.3162 65.0398 68.5664 63.3166 68.5664 61.2664C68.5664 59.0306 69.438 57.1016 71.1732 55.4831C72.9134 53.8645 74.9091 53.0542 77.1663 53.0542C78.6163 53.0542 79.9514 53.479 81.1736 54.3295C82.3938 55.1817 83.2337 56.2933 83.6952 57.6665H70.5027C70.2947 58.086 70.1313 58.5636 70.0183 59.0998C69.9005 59.6361 69.845 60.148 69.845 60.6361C69.845 62.5006 70.5304 64.1034 71.8992 65.4421C73.2709 66.7816 74.8873 67.4509 76.7523 67.4509C78.2261 67.4509 79.5384 67.0548 80.6912 66.263C81.8401 65.4703 82.7503 64.3763 83.4169 62.9781Z" fill="#343434"/>
<path d="M119.093 34.1436H89.4961V0.000152588H119.093V34.1436Z" fill="#343434"/>
<path fill-rule="evenodd" clip-rule="evenodd" d="M104.025 12.2008C103.811 11.9279 101.008 6.79051 101.95 4.62868C102.587 3.16589 103.06 6.4441 104.407 6.441L104.992 5.83345C107.567 2.5815 108.109 6.66135 106.69 9.11757C106.204 9.95709 104.78 12.0199 104.025 12.2008ZM104.154 25.4831C108.389 15.1122 103.105 15.0496 105.38 12.4838C107.653 9.92192 107.785 10.1117 111.335 8.2975C111.347 8.29239 111.358 8.28658 111.368 8.28187C111.682 8.09398 111.73 7.73384 111.622 8.48027C111.618 8.51083 111.614 8.5421 111.609 8.57616C110.812 13.8519 111.499 13.835 111.35 16.2188C111.15 19.4129 110.063 20.5198 109.021 22.9767C108.575 23.7373 107.9 24.387 107.048 24.665C106.205 25.2549 105.364 25.5759 104.154 25.4831ZM101.581 20.7057C101.469 19.2837 101.629 17.7603 102.664 16.2443C102.946 15.8324 103.504 14.8833 103.815 14.563C105.957 16.5809 103.932 22.1039 103.583 23.7597C103.458 24.3441 103.466 24.7824 102.903 24.4909C102.506 24.2841 102.21 23.9076 102 23.4222L101.989 23.4112C101.988 23.4014 101.986 23.3936 101.985 23.3839C101.68 22.6589 101.562 21.6987 101.581 20.7057ZM100.95 23.5572C102.312 25.5661 100.7 27.6778 96.8131 23.4222C93.3674 19.6496 99.3833 13.4486 97.1677 7.53303C97.1479 7.48133 97.1291 7.43243 97.1113 7.38743C96.7617 6.52507 96.5913 6.73841 97.4262 7.13772C98.9466 7.84738 100.979 8.27595 101.794 10.0499C103.067 12.8193 103.224 12.739 101.795 15.1541C100.46 17.4139 99.2199 21.0059 100.95 23.5572ZM94.6788 18.1067C93.6309 22.2057 93.9399 24.4242 98.1205 26.3442C99.5269 26.9909 100.585 26.6777 101.854 27.0848C102.384 29.0243 99.3388 31.6743 101.199 30.9658C101.607 30.8104 101.904 29.9903 102.321 29.2258C102.827 28.2982 103.085 27.2864 103.672 26.5868C107.743 26.4566 109.294 25.2079 110.909 22.3994C112.459 19.7045 112.552 15.2089 112.283 12.1656C112.227 11.5268 112.42 9.5677 112.61 8.97469C113.047 7.61049 113.808 7.46649 113.995 6.13677C112.36 6.22876 110.681 7.82974 108.826 7.97534C108.942 6.7357 108.583 5.04864 107.769 4.12565C106.324 2.4887 105.315 4.06303 104.038 4.47517C104.038 4.47407 102.896 2.17245 101.433 3.67082C100.385 4.74412 100.609 5.73836 100.628 7.1279C99.9568 7.03711 96.4932 5.23532 95.0036 5.30697C94.5609 5.32851 94.8848 5.23924 94.5956 5.40959C94.0717 6.76897 97.2905 6.69933 96.6725 11.3768L94.6788 18.1067Z" fill="white"/>
<path d="M4.03895 15.9194V28.22C4.03895 29.5235 4.15483 30.2809 4.38164 30.4904C4.60845 30.699 5.36219 30.8046 6.63786 30.8046H7.45893V31.3984H0.137683V30.8046H2.20966V11.1303C2.20966 10.4564 2.04919 10.0305 1.72532 9.85744C1.40244 9.68208 0.82899 9.596 0 9.596V9.00219H10.5313V7.56845H11.1185V15.1504H10.5313V14.2481C10.5313 13.2765 10.4975 12.6159 10.4292 12.2687C10.2896 11.5277 9.97462 10.9679 9.4794 10.5855C8.9832 10.2027 8.30576 9.94241 7.44211 9.80343C6.57647 9.66565 5.71972 9.596 4.86795 9.596H4.03895V15.1504H6.87261V11.6913H7.45893V20.0432H6.87261V19.6235C6.87261 18.3424 6.73393 17.457 6.45661 16.9677C6.06539 16.2699 5.25916 15.9194 4.03895 15.9194Z" fill="#343434"/>
<path d="M17.1509 7.60282V29.2691C17.1509 29.967 17.3024 30.421 17.6005 30.6293C17.7857 30.7479 18.1542 30.8046 18.7049 30.8046V31.3984H14.0449V30.8046H15.5959V9.45511L14.1459 11.1668L13.6992 10.7859L17.3589 6.45086L17.8085 6.83445L17.1509 7.60282Z" fill="#343434"/>
<path d="M29.6323 17.4571C27.698 17.4571 26.1301 18.1096 24.9327 19.4131C23.7352 20.7184 23.139 22.2685 23.139 24.0612C23.139 25.7162 23.7888 27.2474 25.0902 28.6566C26.3916 30.065 27.903 30.7703 29.6323 30.7703C31.5428 30.7703 33.1087 30.0833 34.3279 28.7086C35.4778 27.4275 36.0542 25.8786 36.0542 24.0612C36.0542 22.4301 35.4332 20.9408 34.1912 19.5884C32.8779 18.1675 31.3576 17.4571 29.6323 17.4571ZM34.8459 29.2672C34.0169 30.0833 33.1028 30.7174 32.0995 31.1714C31.0991 31.6267 30.0334 31.8525 28.9073 31.8525C26.971 31.8525 25.315 31.1316 23.9314 29.6872C22.5527 28.2428 21.8604 26.5421 21.8604 24.5858C21.8604 22.3722 22.6894 20.4738 24.3483 18.8905C25.1773 18.0979 26.0905 17.4813 27.0918 17.0371C28.0941 16.5959 29.1598 16.3737 30.2869 16.3737C32.2203 16.3737 33.8782 17.0841 35.2619 18.5049C36.6415 19.927 37.3329 21.616 37.3329 23.572C37.3329 25.7854 36.5039 27.6839 34.8459 29.2672Z" fill="#343434"/>
<path d="M53.9567 17.4224L49.0858 31.8523L48.549 31.8476L46.6583 26.1121L44.5526 31.8496L44.0772 31.8535L40.2135 20.2505C39.8223 19.086 39.4123 18.3239 38.9844 17.9646C38.5605 17.6036 38.0009 17.4224 37.3096 17.4224V16.8287H41.6942V17.4224H40.4185L44.4456 29.7594L46.1967 24.9781L44.7685 20.4983C44.4684 19.5197 44.204 18.8562 43.9742 18.5047C43.5126 17.7837 42.8917 17.4224 42.1102 17.4224V16.8287H46.0472V17.4224H44.9062L46.6979 22.8566L48.1053 18.536C48.1053 18.0948 47.9864 17.7993 47.7448 17.6486C47.5061 17.4979 47.0762 17.4224 46.4602 17.4224V16.8287H50.5705V17.4224L49.5127 17.4264L47.307 24.0238L48.9115 29.7739L51.7085 21.2654C51.8263 20.9386 51.964 20.4794 52.1244 19.8856C52.2839 19.2907 52.377 18.8786 52.4018 18.6456C52.4018 17.8295 51.9303 17.4224 50.9865 17.4224V16.8287H55.1651V17.4224H53.9567Z" fill="#343434"/>
<path d="M59.297 20.2186H69.9699C69.3707 19.3563 68.5862 18.6803 67.6206 18.191C66.6529 17.7018 65.6417 17.4571 64.5809 17.4571C63.5222 17.4571 62.5208 17.6959 61.577 18.1734C60.6331 18.6509 59.8705 19.332 59.297 20.2186ZM71.7655 26.2975L72.2826 26.5421C71.5912 28.2201 70.5681 29.5236 69.2072 30.4552C67.8504 31.388 66.2627 31.8525 64.4443 31.8525C62.4179 31.8525 60.6549 31.1539 59.1603 29.7564C57.6618 28.3591 56.9141 26.6361 56.9141 24.5858C56.9141 22.3488 57.7827 20.4209 59.5228 18.8016C61.2601 17.1839 63.2578 16.3737 65.5149 16.3737C66.9649 16.3737 68.3 16.7983 69.5202 17.6489C70.7395 18.5002 71.5803 19.6127 72.0399 20.9858H58.8484C58.6394 21.4055 58.4799 21.8829 58.365 22.4192C58.2501 22.9546 58.1927 23.4663 58.1927 23.9556C58.1927 25.8199 58.8761 27.4217 60.2478 28.7615C61.6166 30.101 63.2359 30.7703 65.0989 30.7703C66.5717 30.7703 67.884 30.3741 69.0359 29.5815C70.1888 28.7897 71.096 27.6948 71.7655 26.2975Z" fill="#343434"/>
<path d="M74.752 20.6541L78.3769 16.2858L78.8266 16.6693L77.9609 17.7195V18.9416C78.5601 18.3361 79.0682 17.9055 79.4813 17.6498C80.0805 17.2772 80.7233 17.0893 81.4146 17.0893C81.6939 17.0893 81.9969 17.1304 82.3317 17.2114C82.6655 17.2936 83.0032 17.4052 83.3479 17.5441V16.1812H83.9362V22.5408H83.3479V22.2961V21.5974C83.3479 21.1316 83.338 20.7531 83.3152 20.4615C83.2924 20.1706 83.2053 19.8391 83.0567 19.4653C82.9072 19.0942 82.6655 18.7615 82.3317 18.4699C81.9969 18.1783 81.6127 17.9983 81.1729 17.9278C80.5747 17.8358 79.9428 18.0679 79.2733 18.6277C78.6998 19.117 78.262 19.6981 77.9609 20.3734V29.9837C77.9609 30.7059 78.1243 31.1591 78.4443 31.3451C78.6522 31.4633 79.1584 31.52 79.9646 31.52V32.1143H74.855V31.52H76.407V19.5698L75.1986 21.0377L74.752 20.6541Z" fill="#343434"/>
<path d="M93.023 51.1331V55.6287C93.7114 55.6287 94.2631 55.4211 94.6751 55.0032C95.1 54.5862 95.3129 54.0461 95.3129 53.3819C95.3129 52.7164 95.1 52.1751 94.6751 51.7582C94.2631 51.3414 93.7114 51.1331 93.023 51.1331ZM92.4724 55.6287V51.1331C91.79 51.1331 91.2383 51.3414 90.8193 51.7582C90.4014 52.1821 90.1924 52.7223 90.1924 53.3819C90.1924 54.0394 90.4014 54.5796 90.8193 55.0032C91.2383 55.4211 91.79 55.6287 92.4724 55.6287ZM93.023 56.8018H92.4724V56.1375C91.6355 56.1375 90.9491 55.8831 90.4143 55.3749C89.8923 54.8544 89.6318 54.189 89.6318 53.3819C89.6318 52.5665 89.8923 51.905 90.4143 51.3961C90.9422 50.8814 91.6286 50.6242 92.4724 50.6242V49.9596H93.023V50.6242C93.8788 50.6242 94.5661 50.8814 95.0802 51.3961C95.6091 51.905 95.8735 52.5665 95.8735 53.3819C95.8735 54.1948 95.6091 54.8603 95.0802 55.3749C94.5592 55.8831 93.8728 56.1375 93.023 56.1375V56.8018Z" fill="#343434"/>
<path d="M96.4531 56.8017V56.4408C96.8136 56.4408 97.0959 56.3379 97.2979 56.1324C97.502 55.9281 97.603 55.6325 97.603 55.2478V49.9595H101.603V56.8017H101.043V50.4383H98.1725V55.1989C98.1725 55.701 98.0507 56.1003 97.806 56.3966C97.5614 56.6933 97.2484 56.8408 96.8691 56.8408C96.6492 56.8408 96.5116 56.8283 96.4531 56.8017Z" fill="#343434"/>
<path d="M106.307 56.3623C107.145 56.3623 107.824 56.089 108.346 55.5411C108.867 54.9805 109.129 54.2602 109.129 53.3815C109.129 52.4937 108.867 51.7775 108.346 51.2306C107.824 50.6756 107.145 50.3988 106.307 50.3988C105.476 50.3988 104.801 50.6756 104.278 51.2306C103.757 51.7775 103.495 52.4937 103.495 53.3815C103.495 54.2602 103.757 54.9805 104.278 55.5411C104.801 56.089 105.476 56.3623 106.307 56.3623ZM106.307 49.8908C107.318 49.8908 108.133 50.2138 108.751 50.8588C109.376 51.4976 109.689 52.3384 109.689 53.3815C109.689 54.4235 109.376 55.2643 108.751 55.9031C108.133 56.5481 107.318 56.8711 106.307 56.8711C105.309 56.8711 104.493 56.5481 103.863 55.9031C103.244 55.2573 102.936 54.4169 102.936 53.3815C102.936 52.345 103.244 51.5035 103.863 50.8588C104.488 50.2138 105.302 49.8908 106.307 49.8908Z" fill="#343434"/>
<path d="M114.096 51.8365C114.096 51.4188 113.975 51.0842 113.733 50.8297C113.493 50.5753 113.172 50.4481 112.772 50.4481H111.583V53.2057H112.772C113.172 53.2057 113.493 53.0792 113.733 52.8287C113.975 52.5774 114.096 52.2467 114.096 51.8365ZM111.583 56.8018H111.023V49.9596H112.772C113.333 49.9596 113.79 50.1318 114.144 50.4774C114.493 50.8227 114.666 51.2759 114.666 51.8365C114.666 52.3974 114.493 52.8503 114.144 53.1959C113.804 53.5345 113.346 53.7036 112.772 53.7036H111.583V56.8018Z" fill="#343434"/>
<path d="M116.539 55.7664L120.839 49.9596H121.227V56.8018H120.686V50.9961L116.385 56.8018H115.989V49.9596H116.539V55.7664Z" fill="#343434"/>
<path d="M125.961 56.3623C126.81 56.3623 127.503 56.0812 128.039 55.5214L128.405 55.8738C127.78 56.5384 126.955 56.8711 125.932 56.8711C124.933 56.8711 124.118 56.5481 123.487 55.9031C122.869 55.2573 122.559 54.4169 122.559 53.3815C122.559 52.345 122.869 51.5035 123.487 50.8588C124.113 50.2138 124.927 49.8908 125.932 49.8908C126.942 49.8908 127.766 50.2227 128.405 50.8881L128.039 51.2491C127.503 50.6826 126.81 50.3988 125.961 50.3988C125.116 50.3988 124.43 50.6756 123.903 51.2306C123.38 51.7775 123.119 52.4937 123.119 53.3815C123.119 54.2602 123.38 54.9805 123.903 55.5411C124.437 56.089 125.123 56.3623 125.961 56.3623Z" fill="#343434"/>
<path d="M133.796 50.4383H131.796V56.8018H131.246V50.4383H129.245V49.9596H133.796V50.4383Z" fill="#343434"/>
<path d="M135.563 55.7664L139.863 49.9596H140.25V56.8018H139.709V50.9961L135.409 56.8018H135.013V49.9596H135.563V55.7664Z" fill="#343434"/>
<path d="M146.356 56.8018H145.661L142.56 53.2926L145.457 49.9596H146.154L143.244 53.2926L146.356 56.8018ZM142.386 56.8018H141.844V49.9596H142.386V56.8018Z" fill="#343434"/>
<path d="M151.806 54.1636L150.308 50.6536L148.8 54.1636H151.806ZM153.574 56.8018H152.946L152.018 54.6704H148.589L147.671 56.8018H147.042L150.037 49.9596H150.569L153.574 56.8018Z" fill="#343434"/>
<path d="M91.1967 62.1695V66.5582C91.1967 67.2627 91.0065 67.761 90.6262 68.0534H93.9986V62.1695H91.1967ZM94.7335 70V68.5329H90.0181V70H89.4961V68.0742C89.8576 68.0742 90.1349 67.9458 90.332 67.6925C90.5281 67.4381 90.6262 67.0604 90.6262 66.5582V61.69H94.5592V68.0534H95.2545V70H94.7335Z" fill="#343434"/>
<path d="M99.979 62.1698H97.0038V64.8381H99.6502V65.3168H97.0038V68.0537H100.028V68.5332H96.4531V61.6903H99.979V62.1698Z" fill="#343434"/>
<path d="M105.826 68.5332H105.13L102.029 65.0241L104.928 61.6903H105.623L102.714 65.0241L105.826 68.5332ZM101.854 68.5332H101.313V61.6903H101.854V68.5332Z" fill="#343434"/>
<path d="M109.497 68.0927C110.334 68.0927 111.014 67.8199 111.535 67.2718C112.058 66.7109 112.318 65.9907 112.318 65.1119C112.318 64.2254 112.058 63.5083 111.535 62.9611C111.014 62.4072 110.334 62.1305 109.497 62.1305C108.665 62.1305 107.989 62.4072 107.468 62.9611C106.946 63.5083 106.686 64.2254 106.686 65.1119C106.686 65.9907 106.946 66.7109 107.468 67.2718C107.989 67.8199 108.665 68.0927 109.497 68.0927ZM109.497 61.6216C110.508 61.6216 111.324 61.9445 111.942 62.5893C112.566 63.2292 112.879 64.0688 112.879 65.1119C112.879 66.1544 112.566 66.9947 111.942 67.6339C111.324 68.2786 110.508 68.6016 109.497 68.6016C108.498 68.6016 107.684 68.2786 107.052 67.6339C106.434 66.9881 106.125 66.1484 106.125 65.1119C106.125 64.0759 106.434 63.2351 107.052 62.5893C107.677 61.9445 108.492 61.6216 109.497 61.6216Z" fill="#343434"/>
<path d="M117.284 63.5671C117.284 63.1503 117.163 62.8156 116.922 62.5612C116.681 62.3068 116.36 62.1784 115.961 62.1784H114.772V64.936H115.961C116.36 64.936 116.681 64.81 116.922 64.5595C117.163 64.309 117.284 63.9782 117.284 63.5671ZM114.772 68.5332H114.213V61.6903H115.961C116.522 61.6903 116.979 61.8633 117.333 62.209C117.681 62.5542 117.854 63.0075 117.854 63.5671C117.854 64.1277 117.681 64.581 117.333 64.9262C116.991 65.2648 116.533 65.4343 115.961 65.4343H114.772V68.5332Z" fill="#343434"/>
<path d="M0 42.7764H165V41.3261H0V42.7764Z" fill="#343434"/>
</svg>
