<svg width="29" height="50" viewBox="0 0 29 50" fill="none" xmlns="http://www.w3.org/2000/svg">
<path fill-rule="evenodd" clip-rule="evenodd" d="M2.83437 0.0733697C1.76659 0.321621 0.810094 1.09728 0.310571 2.12012L0 2.75591V25.0086V47.2612L0.310571 47.897C0.705132 48.705 1.32848 49.3127 2.15744 49.6973L2.80969 50H14.5H26.1903L26.8426 49.6973C27.6715 49.3127 28.2949 48.705 28.6894 47.897L29 47.2612V25.0086V2.75591L28.6894 2.12012C28.2949 1.31208 27.6715 0.704465 26.8426 0.319861L26.1903 0.0171267L14.7007 0.00147648C8.22185 -0.00732676 3.04681 0.0240715 2.83437 0.0733697ZM20.1222 2.36789C20.1923 2.45034 20.2701 2.72549 20.2948 2.97922C20.3308 3.34808 20.2961 3.4946 20.122 3.7096L19.9041 3.97859H14.554C9.43584 3.97859 9.1936 3.97047 8.96702 3.79157C8.77064 3.63663 8.7301 3.51368 8.7301 3.07303C8.7301 2.14741 8.25396 2.21794 14.5 2.21794C19.3144 2.21794 20.0103 2.23652 20.1222 2.36789ZM26.2405 22.3187V38.5069H14.5H2.75952V22.3187V6.13049H14.5H26.2405V22.3187ZM15.5861 42.0869C16.735 42.6449 17.1894 44.0231 16.6009 45.1649C15.743 46.8299 13.257 46.8299 12.3991 45.1649C11.6029 43.6199 12.7297 41.8325 14.5 41.8325C14.9048 41.8325 15.2095 41.9039 15.5861 42.0869Z" fill="#343434"/>
</svg>
