<svg width="25" height="25" viewBox="0 0 25 25" fill="none" xmlns="http://www.w3.org/2000/svg">
<path fill-rule="evenodd" clip-rule="evenodd" d="M10.889 0.0804129C6.7388 0.624088 3.10962 3.23754 1.27116 7.00646C-0.425021 10.4835 -0.425021 14.5086 1.27116 17.9856C3.16364 21.8652 6.87716 24.4665 11.2065 24.9451C12.2033 25.0553 13.7964 24.9914 14.8055 24.8008C19.2367 23.964 22.8986 20.7793 24.3453 16.5042C25.2169 13.9287 25.2169 11.0634 24.3453 8.48788C22.7907 3.89401 18.6908 0.58845 13.8802 0.0503522C13.167 -0.0294377 11.6078 -0.0137614 10.889 0.0804129ZM13.3188 2.51668C18.2612 2.95455 22.0725 6.80214 22.4746 11.7597C22.7632 15.3176 20.9946 18.9058 17.9858 20.867C14.5926 23.0787 10.2803 23.0527 6.93012 20.8005C3.5536 18.5307 1.87837 14.4298 2.70634 10.4608C3.51753 6.57222 6.5903 3.50093 10.4841 2.687C11.4786 2.4791 12.3225 2.42837 13.3188 2.51668ZM12.2083 6.26569C11.7775 6.40565 11.5095 6.63504 11.3611 6.99072C11.2245 7.31775 11.2245 13.9168 11.3611 14.2438C11.7352 15.1402 12.9578 15.2528 13.5257 14.4432L13.7043 14.1887L13.722 10.7444C13.7341 8.40293 13.7195 7.23039 13.6765 7.08249C13.5113 6.51486 12.7481 6.09025 12.2083 6.26569ZM12.0701 16.3396C11.5991 16.5077 11.2729 16.9891 11.2729 17.5159C11.2729 18.2325 11.7763 18.7195 12.5169 18.7195C13.1665 18.7195 13.6689 18.2667 13.7213 17.6339C13.799 16.6962 12.9456 16.0272 12.0701 16.3396Z" fill="#B67E68"/>
</svg>
