<svg width="32" height="32" viewBox="0 0 32 32" fill="none" xmlns="http://www.w3.org/2000/svg">
<path fill-rule="evenodd" clip-rule="evenodd" d="M3.57018 0.0745522C2.61888 0.25464 1.99488 0.586899 1.27771 1.29536C0.840319 1.72746 0.689783 1.92833 0.479635 2.35999C-0.0431062 3.43413 0.000914667 2.17971 0.000914667 16.0059C0.000914667 29.832 -0.0431062 28.5776 0.479635 29.6517C0.842698 30.3978 1.59619 31.1495 2.352 31.5199C3.41946 32.043 2.16721 31.9991 16 31.9991C29.8312 31.9991 28.5763 32.0431 29.6509 31.5205C30.3972 31.1576 31.1492 30.4044 31.5197 29.6489C32.043 28.5818 31.9991 29.8336 31.9991 16.0059C31.9991 2.17833 32.0432 3.43294 31.5197 2.35999C31.1523 1.60683 30.4039 0.858752 29.6509 0.492129C28.5732 -0.0326118 29.8702 0.0145855 16.1879 0.00237929C6.30042 -0.00638412 3.92604 0.00719916 3.57018 0.0745522ZM25.5168 8.29106C25.7999 8.43322 26.0189 8.76435 26.0196 9.05135C26.0204 9.3843 22.8962 23.1409 22.7698 23.3608C22.5572 23.7308 21.9667 23.9292 21.5497 23.7707C21.4635 23.738 20.3291 22.9897 19.0288 22.108C17.7286 21.2262 16.6469 20.4995 16.6251 20.4931C16.6033 20.4867 16.0319 21.0026 15.3553 21.6395C13.9954 22.9197 13.8179 23.0329 13.3776 22.901C13.2192 22.8536 13.0666 22.7486 12.9741 22.6234C12.8894 22.5086 12.4539 21.3239 11.9625 19.8712C11.4881 18.4682 11.0929 17.3204 11.0845 17.3204C11.076 17.3204 9.98772 17.0245 8.66597 16.6629C6.00204 15.934 5.981 15.9244 5.981 15.4425C5.981 15.2781 6.02671 15.1485 6.1219 15.0431C6.23198 14.9211 8.29533 14.1549 15.5617 11.5375C20.8657 9.62704 24.9547 8.18665 25.0797 8.18484C25.2003 8.18302 25.3969 8.23084 25.5168 8.29106ZM17.1823 13.8946C14.4058 15.4861 12.0881 16.827 12.0319 16.8742C11.9757 16.9215 11.9298 17.0089 11.9298 17.0685C11.9298 17.1816 13.2818 21.2592 13.3379 21.3153C13.3555 21.333 13.3815 21.3356 13.3954 21.3213C13.4094 21.307 13.4958 20.6614 13.5872 19.8868C13.6788 19.1122 13.7871 18.4308 13.828 18.3727C13.8688 18.3146 15.7902 16.7278 18.0977 14.8467C20.4052 12.9655 22.3472 11.3738 22.4133 11.3096C22.5132 11.2124 22.5198 11.1765 22.4525 11.0955C22.4081 11.042 22.34 10.9988 22.3012 10.9995C22.2623 11.0003 19.9589 12.3031 17.1823 13.8946Z" fill="#1C8ADB"/>
</svg>
