<svg width="51" height="51" viewBox="0 0 51 51" fill="none" xmlns="http://www.w3.org/2000/svg">
<circle cx="25.5" cy="25.5" r="25.5" transform="rotate(90 25.5 25.5)" fill="url(#paint0_linear_268_124)"/>
<path d="M24.6464 37.3536C24.8417 37.5488 25.1583 37.5488 25.3536 37.3536L28.5355 34.1716C28.7308 33.9763 28.7308 33.6597 28.5355 33.4645C28.3403 33.2692 28.0237 33.2692 27.8284 33.4645L25 36.2929L22.1716 33.4645C21.9763 33.2692 21.6597 33.2692 21.4645 33.4645C21.2692 33.6597 21.2692 33.9763 21.4645 34.1716L24.6464 37.3536ZM24.5 12L24.5 37L25.5 37L25.5 12L24.5 12Z" fill="white"/>
<defs>
<linearGradient id="paint0_linear_268_124" x1="-1.90735e-06" y1="25.5" x2="51" y2="25.5" gradientUnits="userSpaceOnUse">
<stop stop-color="#4D95FF"/>
<stop offset="0.199188" stop-color="#539FFF"/>
<stop offset="0.576127" stop-color="#62B6FF"/>
<stop offset="0.8492" stop-color="#6DBAFF"/>
<stop offset="0.994202" stop-color="#93CAFF"/>
</linearGradient>
</defs>
</svg>
