<svg width="15" height="14" viewBox="0 0 15 14" fill="none" xmlns="http://www.w3.org/2000/svg">
<path fill-rule="evenodd" clip-rule="evenodd" d="M6.41316 0.0169979C5.09974 0.153191 3.90462 0.620813 2.83749 1.41614C2.49066 1.67466 1.7435 2.41933 1.4883 2.76086C0.812314 3.66559 0.374043 4.64984 0.181254 5.69621C-0.184251 7.67982 0.271621 9.61412 1.4883 11.2425C1.7435 11.584 2.49066 12.3287 2.83749 12.5872C3.83817 13.333 4.94704 13.7848 6.22064 13.9657C6.54551 14.0119 7.62511 14.0113 7.96428 13.9648C9.55352 13.7469 10.9768 13.0441 12.0593 11.9426C12.4042 11.5917 12.4863 11.4984 12.707 11.2072C13.4193 10.2669 13.8868 9.11628 14.0653 7.8647C14.1112 7.54234 14.1112 6.46085 14.0652 6.13865C13.9073 5.03177 13.5156 3.98307 12.9394 3.12492C11.8107 1.44375 10.0753 0.351385 8.06039 0.0537106C7.72355 0.00392922 6.74865 -0.0177696 6.41316 0.0169979ZM7.34228 2.57344C7.40124 2.60566 7.47711 2.68084 7.5139 2.74347L7.57986 2.85577V4.8053V6.75485L8.78714 7.71856C9.69392 8.44238 10.0062 8.70668 10.0418 8.78033C10.0679 8.83427 10.0895 8.94271 10.0898 9.02129C10.0909 9.28444 9.87446 9.49486 9.60267 9.49486C9.52919 9.49486 9.43015 9.47592 9.38256 9.45277C9.26009 9.39321 6.72967 7.36048 6.66144 7.2668C6.60586 7.19056 6.60496 7.15867 6.59771 5.02481L6.59035 2.86015L6.65158 2.75144C6.74829 2.57977 6.96634 2.47168 7.15424 2.50226C7.19955 2.50966 7.28418 2.54168 7.34228 2.57344Z" fill="white"/>
</svg>
