<svg width="32" height="32" viewBox="0 0 32 32" fill="none" xmlns="http://www.w3.org/2000/svg">
<path d="M32 27.5556C32 30.0107 30.0107 32 27.5556 32H4.44444C1.99022 32 0 30.0107 0 27.5556V4.44444C0 1.98933 1.99022 0 4.44444 0H27.5556C30.0107 0 32 1.98933 32 4.44444V27.5556Z" fill="#1976D2"/>
<path d="M26.6108 10.7027C26.6517 10.5685 26.6713 10.444 26.6659 10.3329C26.6526 10.0111 26.4313 9.77734 25.9104 9.77734H23.5833C22.9957 9.77734 22.7246 10.1329 22.5664 10.4893C22.5664 10.4893 21.1157 13.4751 19.4437 15.444C18.9015 16.0138 18.6259 15.9996 18.3326 15.9996C18.1753 15.9996 17.7779 15.8093 17.7779 15.2876V10.6787C17.7779 10.0618 17.6242 9.77734 17.1273 9.77734H12.9948C12.6331 9.77734 12.4446 10.0618 12.4446 10.3471C12.4446 10.94 13.2428 11.0822 13.3335 12.7436V15.964C13.3335 16.7462 13.1975 16.8885 12.9042 16.8885C12.1131 16.8885 10.5557 14.2218 9.51305 10.7267C9.28727 10.0387 9.0615 9.77734 8.47394 9.77734H6.12461C5.44639 9.77734 5.3335 10.1098 5.3335 10.4653C5.3335 11.1062 5.86683 14.5711 8.77794 18.5551C10.8891 21.444 13.6704 23.1107 16.1326 23.1107C17.6242 23.1107 17.7771 22.7311 17.7771 22.1382V19.4965C17.7779 18.7845 17.9406 18.6662 18.4153 18.6662C18.7539 18.6662 19.4446 18.8885 20.7779 20.444C22.3157 22.2378 22.5948 23.1107 23.4766 23.1107H25.8037C26.3442 23.1107 26.6544 22.884 26.6668 22.444C26.6695 22.332 26.6535 22.2067 26.6171 22.0671C26.4446 21.5551 25.6535 20.3036 24.6668 19.1107C24.1202 18.4502 23.5806 17.796 23.3326 17.4405C23.1664 17.2085 23.1033 17.0449 23.1113 16.8885C23.1193 16.724 23.2046 16.5676 23.3326 16.3489C23.3095 16.3489 26.3175 12.1258 26.6108 10.7027Z" fill="white"/>
</svg>
