<svg width="188" height="124" viewBox="0 0 188 124" fill="none" xmlns="http://www.w3.org/2000/svg">
<path d="M0.0373459 44.909C0.0373459 44.8889 0.0351257 44.8688 0.0351257 44.8487C0.0351257 20.4291 20.0713 0.633545 44.7878 0.633545C69.5043 0.633545 89.54 20.4287 89.54 44.8487C89.54 69.2687 69.502 89.0639 44.7874 89.0639C39.7078 89.0639 34.8454 88.189 30.2956 86.6476C40.3642 143.714 85.4066 180.517 43.6528 150.228C-2.64623 116.64 -0.0144577 46.1978 0.0373459 44.909Z" fill="#F7F7F7"/>
<path d="M143.247 89.0635C138.168 89.0635 133.305 88.1886 128.753 86.6472C138.824 143.714 183.867 180.516 142.113 150.227C95.8136 116.64 98.445 46.1978 98.4972 44.909C98.4972 44.8889 98.495 44.8688 98.495 44.8487C98.495 20.4291 118.531 0.633545 143.247 0.633545C167.964 0.633545 188 20.4287 188 44.8487C188 69.2687 167.962 89.0635 143.247 89.0635Z" fill="#F7F7F7"/>
</svg>
