<svg width="15" height="15" viewBox="0 0 15 15" fill="none" xmlns="http://www.w3.org/2000/svg">
<path fill-rule="evenodd" clip-rule="evenodd" d="M0.915847 0.0395944C0.450644 0.152716 0.0995226 0.536608 0.0160729 1.02327C-0.0278943 1.27974 0.0231369 2.33398 0.110954 2.98375C0.4721 5.65505 1.50169 7.98942 3.24857 10.0975C3.56153 10.4752 4.52453 11.4383 4.9022 11.7513C7.01017 13.4983 9.34436 14.528 12.0154 14.8892C12.67 14.9777 13.7192 15.0281 13.9791 14.9835C14.476 14.8983 14.8645 14.5297 14.9671 14.0461C14.9889 13.9429 15 13.3968 15 12.418C15 10.8486 14.9938 10.7685 14.8515 10.4895C14.7709 10.3314 14.5777 10.1249 14.4292 10.0378C14.2056 9.90677 14.0628 9.87479 13.5784 9.84711C12.6675 9.79511 12.0842 9.70178 11.3515 9.49084C10.9779 9.38328 10.9185 9.37396 10.6743 9.38463C10.4382 9.39498 10.3837 9.40832 10.2126 9.49778C10.106 9.55357 9.62308 9.89932 9.13956 10.2661C8.656 10.6329 8.25089 10.933 8.23925 10.933C8.20056 10.933 7.63274 10.6021 7.29109 10.3805C6.0234 9.5582 5.05826 8.52301 4.27101 7.14125C4.09286 6.82856 4.06199 6.7556 4.08934 6.71181C4.10745 6.68279 4.41549 6.2719 4.77385 5.79868C5.13221 5.3255 5.45563 4.88509 5.49257 4.82002C5.5295 4.75494 5.5812 4.61775 5.6075 4.51512C5.66785 4.27962 5.65023 4.12522 5.50373 3.60455C5.30049 2.88223 5.20021 2.2461 5.16645 1.46465C5.1469 1.01219 5.1014 0.7924 4.98686 0.596936C4.82327 0.317752 4.49914 0.08805 4.18472 0.0283965C3.95275 -0.0156033 1.10265 -0.00584188 0.915847 0.0395944Z" fill="#9A9A9A"/>
</svg>
