<svg width="20" height="15" viewBox="0 0 20 15" fill="none" xmlns="http://www.w3.org/2000/svg">
<path fill-rule="evenodd" clip-rule="evenodd" d="M1.31151 0.0646364C1.19331 0.098475 1.07926 0.144565 1.05812 0.167069C1.01526 0.212701 9.51292 9.2947 9.69472 9.39763C9.83072 9.47464 10.1693 9.47464 10.3053 9.39763C10.4857 9.29549 18.9848 0.212701 18.9422 0.167527C18.9213 0.145232 18.7991 0.0978915 18.6708 0.0623443C18.4634 0.0048354 17.5022 -0.00204067 9.982 0.000418041C2.65734 0.00279341 1.49769 0.0113781 1.31151 0.0646364ZM0.0716243 1.29995C0.00348336 1.50803 0 1.81095 0 7.49883C0 13.1867 0.00348336 13.4896 0.0716243 13.6977C0.111037 13.818 0.155108 13.9165 0.169589 13.9165C0.184031 13.9165 1.55198 12.4725 3.20939 10.7077L6.2229 7.49883L3.20939 4.29C1.55198 2.52514 0.184031 1.08117 0.169589 1.08117C0.155108 1.08117 0.111037 1.1796 0.0716243 1.29995ZM16.7906 4.29L13.7771 7.49883L16.7906 10.7077C18.448 12.4725 19.816 13.9165 19.8304 13.9165C19.8449 13.9165 19.889 13.818 19.9284 13.6977C19.9965 13.4896 20 13.1867 20 7.49883C20 1.81095 19.9965 1.50803 19.9284 1.29995C19.889 1.1796 19.8449 1.08117 19.8304 1.08117C19.816 1.08117 18.448 2.52514 16.7906 4.29ZM4.01268 11.6026C2.07272 13.6684 1.03307 14.8039 1.05777 14.8302C1.07875 14.8524 1.20086 14.8998 1.32916 14.9353C1.53648 14.9928 2.5016 15 10 15C17.4984 15 18.4635 14.9928 18.6708 14.9353C18.7991 14.8998 18.9213 14.8524 18.9423 14.8301C18.967 14.8038 17.926 13.667 15.9787 11.5936L12.977 8.39747L12.0462 9.37933C11.1946 10.2778 11.089 10.375 10.8044 10.524L10.4933 10.6868H10H9.50669L9.19562 10.5234C8.91194 10.3744 8.80325 10.2744 7.96176 9.38784C7.45421 8.85313 7.03147 8.41564 7.02231 8.41564C7.01315 8.41564 5.65883 9.84978 4.01268 11.6026Z" fill="#9A9A9A"/>
</svg>
