<svg width="13" height="15" viewBox="0 0 13 15" fill="none" xmlns="http://www.w3.org/2000/svg">
<path fill-rule="evenodd" clip-rule="evenodd" d="M6.09546 0.0086927C5.16554 0.124839 4.38678 0.510096 3.74018 1.17388C3.16594 1.76337 2.83485 2.39259 2.66599 3.21537C2.59499 3.56114 2.59499 4.33535 2.66599 4.68112C2.83502 5.50479 3.16704 6.13532 3.74018 6.72127C4.32214 7.31622 4.95813 7.66477 5.77761 7.83791C6.11439 7.90905 6.87697 7.909 7.22935 7.83776C8.00913 7.68016 8.65521 7.32912 9.23468 6.74812C9.81667 6.16464 10.1633 5.51291 10.334 4.68112C10.405 4.33538 10.405 3.56114 10.334 3.21537C10.223 2.67451 10.0172 2.17149 9.72235 1.72031C9.54043 1.44193 8.97592 0.867241 8.70812 0.687745C8.24235 0.37557 7.74017 0.161219 7.24496 0.0632479C7.01209 0.0171647 6.29874 -0.0166941 6.09546 0.0086927ZM4.94727 8.83142C3.3309 9.03009 1.87144 9.96157 0.931815 11.3943C0.381007 12.2341 0.06512 13.2227 0.00903359 14.2823C-0.00810151 14.6062 -0.00460511 14.6444 0.0526371 14.7582C0.0940734 14.8406 0.152934 14.9016 0.2289 14.941C0.342142 14.9996 0.386237 15 6.5 15C12.6138 15 12.6579 14.9996 12.7711 14.941C12.8471 14.9016 12.9059 14.8406 12.9474 14.7582C13.0046 14.6444 13.0081 14.6062 12.991 14.2823C12.9145 12.8374 12.3714 11.5704 11.3841 10.5335C10.4485 9.5509 9.23925 8.95132 7.92005 8.81594C7.48161 8.77094 5.34894 8.78205 4.94727 8.83142Z" fill="#9A9A9A"/>
</svg>
