<svg width="17" height="21" viewBox="0 0 17 21" fill="none" xmlns="http://www.w3.org/2000/svg">
<path fill-rule="evenodd" clip-rule="evenodd" d="M7.59541 0.0440817C6.06145 0.195696 4.40751 0.838578 3.21145 1.74802C2.86311 2.01289 2.19671 2.63854 1.90862 2.97122C0.509713 4.58655 -0.191174 6.7973 0.045202 8.8491C0.193604 10.1373 0.696419 11.4664 1.41626 12.4729C1.55551 12.6676 3.12321 14.6658 4.90009 16.9134L8.13071 21H8.50178H8.8729L12.1035 16.9132C13.8803 14.6655 15.448 12.6673 15.5872 12.4727C15.7264 12.2781 15.9624 11.8861 16.1115 11.6016C17.2861 9.36055 17.2966 6.76395 16.14 4.53003C14.5589 1.47605 11.1602 -0.30829 7.59541 0.0440817ZM9.08737 5.43245C10.1305 5.63887 11.0381 6.49711 11.2564 7.48355C11.3891 8.08344 11.3091 8.65429 11.0119 9.22694C10.7581 9.7162 10.2771 10.171 9.75975 10.411C8.92443 10.7986 8.07905 10.7986 7.24373 10.411C6.72634 10.171 6.24543 9.7162 5.99157 9.22694C5.58167 8.43704 5.58167 7.63762 5.99157 6.84772C6.34616 6.16435 7.11571 5.59288 7.89442 5.43475C8.26623 5.35923 8.71291 5.35837 9.08737 5.43245Z" fill="#9A9A9A"/>
</svg>
